<?xml version="1.0" encoding="UTF-8" standalone="no"?>
<!-- Created with Inkscape (http://www.inkscape.org/) -->

<svg
   xmlns:dc="http://purl.org/dc/elements/1.1/"
   xmlns:cc="http://creativecommons.org/ns#"
   xmlns:rdf="http://www.w3.org/1999/02/22-rdf-syntax-ns#"
   xmlns:svg="http://www.w3.org/2000/svg"
   xmlns="http://www.w3.org/2000/svg"
   xmlns:sodipodi="http://sodipodi.sourceforge.net/DTD/sodipodi-0.dtd"
   xmlns:inkscape="http://www.inkscape.org/namespaces/inkscape"
   width="210mm"
   height="297mm"
   viewBox="0 0 210 297"
   version="1.1"
   id="svg8"
   inkscape:version="0.92.4 (5da689c313, 2019-01-14)"
   sodipodi:docname="profiles.svg">
  <defs
     id="defs2" />
  <sodipodi:namedview
     id="base"
     pagecolor="#ffffff"
     bordercolor="#666666"
     borderopacity="1.0"
     inkscape:pageopacity="0.0"
     inkscape:pageshadow="2"
     inkscape:zoom="0.49497475"
     inkscape:cx="708.72796"
     inkscape:cy="592.52654"
     inkscape:document-units="mm"
     inkscape:current-layer="layer1"
     showgrid="false"
     inkscape:window-width="1920"
     inkscape:window-height="1027"
     inkscape:window-x="-8"
     inkscape:window-y="22"
     inkscape:window-maximized="1" />
  <metadata
     id="metadata5">
    <rdf:RDF>
      <cc:Work
         rdf:about="">
        <dc:format>image/svg+xml</dc:format>
        <dc:type
           rdf:resource="http://purl.org/dc/dcmitype/StillImage" />
        <dc:title></dc:title>
      </cc:Work>
    </rdf:RDF>
  </metadata>
  <g
     inkscape:label="Layer 1"
     inkscape:groupmode="layer"
     id="layer1">
    <path
       style="fill:#000000;stroke-width:0.05450093"
       d="M 35.185405,81.028238 C 29.854614,80.208777 24.142519,81.500026 19.097503,79.204346 15.427679,76.379476 18.045055,71.473549 16.352339,67.809299 15.441727,63.369498 9.3989971,63.314692 9.8604292,58.146649 9.0106866,54.376728 8.6707683,50.390593 7.033927,46.870263 3.0982664,44.60823 2.5573782,40.282864 2.2906336,36.09576 -0.10820773,32.113049 0.60651381,27.273437 2.9451283,23.4134 2.5888609,18.559072 4.0649067,13.649165 6.2446683,9.3732183 9.0650378,6.0151883 12.825818,2.9778604 17.44286,3.1232651 21.933193,2.7799194 25.903132,0.27931994 30.450971,0.16577144 c 3.87728,0.6162167 7.514559,2.45706216 11.606964,1.57076436 4.769594,0.030923 7.4774,5.0865875 8.39068,9.1807992 0.14037,3.859104 2.600054,8.470727 0.137303,11.931063 -0.90338,-0.0998 -3.126402,-6.141525 -2.021011,-2.111333 0.03588,4.439229 6.328067,1.684751 5.785314,6.001971 -1.040683,3.77158 -0.12073,7.310586 1.001132,10.906479 1.123997,2.657459 -1.260625,9.986645 -4.227291,6.082114 -1.292673,1.460244 -0.05098,7.211028 -0.07214,10.159141 0.124214,3.137388 1.066308,8.389932 -3.484874,8.598655 -3.40023,1.972081 -2.043918,6.481604 -2.11022,9.683308 1.729349,4.239859 -1.55329,7.180225 -5.543508,7.498845 -1.55147,0.53065 -3.107017,1.080961 -4.727915,1.36066 z M 24.655126,80.601752 c -0.105628,-0.358768 -0.170071,0.282072 0,0 z m -0.413323,-0.123907 c 2.063524,-0.134289 -1.812745,-0.666791 0,0 z m 12.025676,-0.07411 c 0.773321,-2.134139 6.687356,-1.185584 5.652498,-2.923607 -1.985369,-0.280995 -7.031859,3.411901 -6.772695,0.46303 2.514428,-3.552713 -2.304047,-7.448128 -5.70074,-7.581349 -3.735721,-0.837579 -6.147035,-4.685716 -10.110486,-4.71716 -2.854849,0.76794 0.842433,4.504656 -0.429597,6.677166 -1.021281,5.366726 4.501718,7.243661 8.79886,7.194673 2.044792,0.502312 6.337518,-1.141864 2.037308,-1.204495 -2.103212,0.217782 -6.728623,-0.269732 -6.265673,-2.539859 1.480669,0.127724 4.255766,-0.486275 4.675544,-1.321989 -2.075219,0.827691 -3.343957,3.255514 -0.16064,3.293812 2.308759,-0.234667 7.668565,-2.286014 4.493297,1.777013 0.610926,1.015203 2.691288,0.6967 3.782324,0.882765 z m -7.134607,-6.619378 c -0.158853,-2.824832 -4.603881,1.494085 -6.181461,-0.999441 -1.898009,-0.09592 -4.048082,-5.907176 -1.532349,-2.949747 1.793103,3.000214 5.956233,3.46576 7.995579,1.337464 1.766494,0.478463 1.445997,2.418707 -0.281769,2.611724 z m -6.103714,-1.145149 c -0.151397,-0.373825 -0.115279,0.169315 0,0 z m -0.46326,-0.242037 c -0.02257,-0.419027 -0.212026,0.29826 0,0 z m -1.33336,-3.168999 c -0.212028,-0.589581 0.465084,0.571857 0,0 z m -2.2092,-2.954356 c -0.770596,-1.421632 0.659272,-0.366817 0,0 z m 4.672342,13.592422 c -0.234619,-0.490386 -0.400724,0.50007 0,0 z m 15.329498,-0.819951 c -0.05703,-0.238695 -0.17245,0.14984 0,0 z m 0.245253,-0.139476 c -0.08486,-0.217908 -0.09811,0.240603 0,0 z m -3.165458,-0.666808 c 1.923233,-1.209145 5.014641,-5.351916 4.584647,-6.302464 -2.167701,1.43463 -3.980388,3.752583 -4.584647,6.302464 z M 40.586961,76.4134 c 2.263312,-0.931378 -0.933229,-0.82937 -0.06864,0.0019 z m 1.466551,-0.280419 c 0.576139,-0.202139 -0.24992,-0.160956 0,0 z m 0.333451,-0.397439 -0.01,0.09846 z M 18.180962,75.1794 c 0.224514,-1.531631 -0.592378,-0.818755 0,0 z m 24.741034,0.348359 c 3.875929,-0.01774 0.567189,-7.954061 -0.685007,-3.129596 2.792814,-1.662043 -0.06931,1.602556 0.931268,1.068836 2.386903,-0.560227 -0.330899,1.32168 -0.246261,2.06076 z m -5.653469,-2.01653 c 0.95348,-1.476675 4.066947,-2.92959 3.528134,-4.584915 -0.784083,1.404467 -5.671077,4.341876 -2.531388,1.130567 1.199492,-0.672804 5.498441,-5.691265 2.061643,-2.928216 -1.900545,0.848637 -8.449954,5.929047 -3.058389,6.382564 z m 2.819418,-1.798536 c 1.309876,-1.179496 4.750347,-1.800406 3.585012,-4.183761 -1.169526,1.416322 -2.405656,2.775785 -3.585012,4.183761 z m -6.02235,-0.514542 c 1.831613,-3.20009 -2.69494,-1.263871 0,0 z m -5.504593,-2.353106 c -0.390347,-0.554478 -0.281653,0.582909 0,0 z m 16.949785,-0.04816 c -0.10018,-0.324335 -0.07011,0.293502 0,0 z M 27.847946,68.189699 c -0.476007,-0.601715 -0.71343,0.579204 0,0 z m 13.796709,-0.352986 c -0.341989,-0.312942 -0.08573,0.668588 0,0 z m 0.511766,-0.22034 c 2.086908,-0.05529 1.89796,-3.897228 0.464705,-0.978167 0.09112,-0.01446 -1.342395,1.052942 -0.464705,0.978167 z m -5.986863,-0.139991 c -0.27676,-0.0109 0.182287,0.245986 0,0 z M 35.26065,67.052868 c 2.004141,-1.17951 -0.828314,-0.239974 0,0 z m -4.84662,-0.879329 c 4.11665,-1.061713 7.492727,-3.942584 11.626727,-4.946057 1.277732,3.738432 7.910224,0.336505 7.828588,-3.021339 0.548732,-4.167033 -0.891062,-8.314161 -0.349517,-12.485361 -0.09102,-2.992421 0.935865,-8.691599 -3.470569,-8.74368 -3.091016,0.421206 -6.521373,1.229817 -9.416737,-0.366336 1.525381,-0.199426 5.833318,-2.466841 5.373943,-1.091465 -3.772506,1.95069 2.79655,0.707772 4.079161,0.155149 1.654914,-0.718656 3.682547,1.132284 2.889193,-1.953309 -0.910612,-3.940284 1.623855,-7.920369 -0.656245,-11.701515 -0.756721,-3.711773 -4.470537,-5.458028 -5.91305,-8.806551 -1.590566,-3.7530007 -7.164328,-2.69035 -9.960814,-2.789934 2.142809,-2.3388007 5.889669,-0.8121647 8.47306,0.0169 1.652207,0.587293 5.680439,4.541816 4.094579,0.408767 C 42.432937,6.9910023 37.216928,9.6926863 33.80483,7.5436623 c -2.199268,1.298766 -3.477777,3.8950547 -6.493061,3.1299557 -2.515063,-0.7370167 -8.957565,-1.2513337 -6.820376,3.083707 2.697221,2.335445 6.374894,-0.05208 9.508689,0.537179 3.966976,0.981999 9.396453,0.77536 12.373156,3.067679 -2.612765,-0.211835 -5.396471,-1.072512 -8.138156,-1.421683 -3.877762,-0.707578 -7.883826,-1.069259 -11.792556,-0.386471 -2.326379,0.920256 -5.87913,-0.261164 -7.542497,1.455571 -1.172272,-2.424752 5.826736,-1.045654 4.433789,-4.71063 0.571125,-4.0420277 -6.31884,-0.60222 -6.318782,1.94778 -0.786573,3.56609 -5.7249852,5.32921 -5.9748991,8.679172 2.3325393,-0.71908 -0.020567,4.02692 0.4123102,5.685742 0.2300469,2.792706 -2.2240255,7.866902 0.774857,9.285731 0.4026656,-1.78872 5.1451429,-3.862516 4.2901999,-0.938623 -0.938404,0.877496 -3.3995112,3.878996 -2.234221,0.773841 -1.9139047,2.581348 -3.5469787,7.178202 -0.6341995,9.58072 1.7867915,1.234799 -1.0470601,4.62088 2.0444645,5.782903 1.895472,0.480907 2.647694,2.158026 0.786424,3.314757 -0.506501,-0.598074 -1.973623,-4.533336 -2.6253861,-2.585789 0.9724271,3.42875 1.9339761,9.700273 6.8128751,8.829906 4.484027,-1.478785 8.742754,1.347731 12.952097,2.404139 -0.757005,0.854731 -2.031111,1.339508 0.273449,1.126806 z m 1.389674,-1.110116 c -0.113986,-2.252865 -5.943538,-0.989361 -4.242272,-2.971862 2.108381,2.589948 8.546023,0.226789 8.7468,0.676186 -1.252705,1.15222 -2.805513,2.038022 -4.504528,2.295676 z m 11.377172,-3.135016 c 0.845648,-2.131743 3.860796,0.844489 0.699202,0.07292 -0.239858,0.02398 -0.469056,-0.0039 -0.699202,-0.07292 z M 26.354104,60.28324 c -1.656623,0.588457 -6.543944,-1.469276 -4.55133,-2.594892 3.947592,2.114868 8.703808,1.396172 12.742899,-0.06229 0.756412,-1.113607 4.277905,-2.664358 1.956462,-0.328617 -2.993926,2.004456 -6.684314,2.403804 -10.148031,2.985781 z m 9.891528,-3.29799 c -0.318889,-0.223175 -0.227321,0.376943 0,0 z m 11.781608,0.734323 c -1.405861,-2.513881 2.078119,0.161586 0,0 z M 17.580877,57.513384 c 0.472291,-1.433481 0.06693,-3.836463 -0.92466,-1.300973 -2.221639,-1.761788 2.116726,-5.539187 4.03459,-7.065656 0.979383,-1.260798 3.13915,-2.670825 2.054806,-0.08011 -1.94316,1.309986 -5.741543,5.513105 -0.869928,4.519644 4.658096,-0.234472 9.388281,-0.542291 13.858857,-1.936561 2.16493,-1.083686 5.938478,4.277972 2.295078,2.047305 -4.261281,-1.918262 -8.61872,1.350155 -13.027399,0.783544 -2.994253,-0.186003 -5.588027,1.318511 -7.421344,3.032802 z m 7.743145,-0.220649 c -3.760945,-1.466262 2.400603,-3.82507 3.875485,-2.073838 1.403709,-0.526642 6.704452,-1.715648 3.44029,0.804708 -2.322869,0.972382 -5.109539,0.153389 -7.315775,1.26913 z m 9.91567,-0.128028 c 0.10337,-0.295101 0.211777,0.302683 0,0 z m 11.753519,-2.249206 c -1.570463,-2.336242 3.73176,-1.36966 0.740334,-0.248177 z m -4.725228,-1.190259 c -1.852925,-2.167655 -7.069481,-5.754834 -5.934409,-7.672801 1.842389,2.400282 6.318115,3.751136 6.557375,6.74658 -0.180981,0.240475 -0.78841,0.492819 -0.622966,0.926221 z m 4.748199,-1.319508 c 2.451154,-2.131705 -1.348001,-8.03762 0.15839,-8.531988 0.898166,2.600377 2.802323,6.539002 -0.15839,8.531988 z m -0.360878,-4.291948 c -1.767265,-1.147564 0.642949,-1.613549 0,0 z m -22.29607,-0.267875 c 3.251721,-2.246379 4.245993,-6.609862 3.048411,-10.243458 -0.786108,-1.67146 0.714329,-5.471736 1.728153,-2.01678 -0.07696,4.033022 3.342992,6.536282 4.839894,9.47958 -0.902435,4.730589 -5.749857,0.457588 -8.388654,2.801777 l -0.601527,0.06255 z m -4.314005,-0.663007 c -2.016362,-1.895401 3.032364,-5.53443 2.006154,-2.949599 -1.486095,0.332019 0.53845,4.076996 -1.778279,2.11816 -0.251823,0.208633 0.292768,0.926401 -0.227875,0.831439 z m 25.956069,-0.533971 c -1.249606,-1.897614 1.36044,-0.789446 0,0 z m -4.512564,-0.198424 c -3.155436,-1.767921 3.225188,-5.669129 1.835554,-1.617251 -0.27435,0.723817 -0.825705,2.039102 -1.835554,1.617251 z M 8.5319086,43.699206 c 0.098114,-0.240598 0.084868,0.217897 0,0 z M 35.167938,43.416974 c 0.100827,-0.65778 0.430073,0.328894 0,0 z m 10.946664,0.04699 c -0.07868,-0.438977 0.411692,-0.01414 0,0 z M 17.123148,38.527871 c -3.345521,-1.162607 0.02167,-2.804406 1.894077,-1.76686 3.748067,0.863321 -4.074823,0.528448 -0.383585,1.191706 2.583667,0.434913 -0.732337,0.837277 -1.510492,0.575154 z m 4.21964,-1.418184 c -0.698296,-0.225381 0.789958,-0.193603 0,0 z m -0.597817,-0.487774 c 0.39641,-2.349961 2.685539,0.293798 0,0 z M 23.823886,36.0774 c 0.921054,-2.352286 3.145367,-1.280967 0.722681,-0.05124 -0.240894,0.01711 -0.481786,0.03414 -0.722681,0.05124 z m 10.75269,0.05895 c -1.702597,-1.917472 1.906787,-0.687424 0,0 z M 16.04596,35.846297 c -2.640987,-1.424236 2.21471,-2.964818 -1.457595,-2.924027 -2.35848,0.595574 -5.5395801,-2.678521 -2.902519,-4.116366 1.383476,1.32231 0.321622,3.126871 2.99284,2.711804 2.60253,1.031239 6.383935,-0.747657 8.355833,0.566732 -0.270145,2.192816 -5.660597,0.879657 -1.808346,2.446201 0.116094,1.639296 -4.252648,0.10211 -5.180213,1.315656 z m 0.361333,-0.697061 c 0.03767,-0.451036 -0.338658,0.174566 0,0 z m -3.32456,-3.216396 c -0.185984,-0.391113 -0.257063,0.298014 0,0 z m -0.614269,-0.09326 -0.09998,0.0033 z m 23.125773,2.897372 c -2.220148,-0.609832 1.415775,-0.199265 0,0 z m 0.82852,-0.178654 c -0.41209,-0.239247 0.336531,-0.097 0,0 z m 1.839406,-0.283209 c 2.751592,-3.246614 -3.479494,1.341552 -2.947118,-2.224414 1.628581,-1.69393 4.850768,0.115471 6.812163,-2.124163 1.282746,-1.638694 6.153513,-1.513169 5.382371,0.473923 -1.802368,-0.749842 -1.610521,-1.472523 -3.346214,-0.150907 -2.618699,-0.427642 -0.404447,1.93496 -1.731919,1.916592 0.813631,-0.02739 5.810586,1.455743 2.446358,1.341475 -2.252853,-0.411101 -4.37258,0.881999 -6.615641,0.767494 z m 1.682847,-1.425698 c -0.356179,0.08818 0.468904,0.298818 0,0 z m -29.669075,1.37316 c -2.7750334,0.111815 -0.9819808,-3.414333 0.565286,-1.017703 1.95962,0.795425 0.566482,1.005347 -0.565286,1.017703 z m 16.250363,-1.677868 c -2.21163,-1.984648 3.237571,-0.942397 0,0 z m 20.594495,-1.093979 c -0.880382,-1.683033 1.42902,0.140627 0,0 z M 14.00925,31.251581 c 0.221792,-0.908169 0.444234,0.608264 0,0 z m -0.496747,-0.210209 c -0.463933,-0.726299 0.548654,-0.05188 0.243381,0.124568 z m -0.24353,-0.865699 c 0.106026,-0.533675 0.473244,0.366702 0,0 z m 11.608867,-0.0551 c -1.046142,-4.084877 8.493297,0.03021 3.297856,-0.888593 -1.115582,-0.383161 -2.848291,-0.5343 -3.297856,0.888593 z m -3.890581,-0.521505 c -2.000676,-2.326149 -7.325887,-0.07654 -8.113326,-2.506983 2.07032,-3.182025 6.119163,0.416822 9.078071,-0.570301 3.122208,-0.383758 6.69352,-3.72852 9.537066,-0.873119 0.936655,1.616159 -3.119387,-0.186543 -4.139936,0.73838 -2.181586,0.707385 -8.757212,-0.503009 -5.901643,3.049415 z m 7.328485,-3.748944 c -0.867654,-0.426125 -1.463587,0.572267 0,0 z m 3.053451,3.463073 c 0.409217,-1.163656 1.639361,-0.02604 0,0 z m 3.924841,-0.761081 c 1.358106,-2.848509 4.5316,-6.070612 7.957213,-5.007215 2.588521,2.397156 -3.824524,1.43386 -5.103503,2.897272 -0.867828,0.813181 -1.292165,2.494209 -2.85371,2.109943 z m 10.634596,-0.149531 c -0.741852,-2.701859 2.816832,-1.191707 0,0 z M 29.240183,27.999557 c 0.769124,-1.686036 2.083418,1.109781 0,0 z M 9.6693159,26.809221 C 5.6050308,26.093657 11.739547,20.758807 10.63361,25.277898 10.436099,25.861707 9.9623155,26.280078 9.6693159,26.809221 Z M 16.11061,22.522994 c -3.438926,0.465632 -0.856384,-1.791567 1.100061,-1.052274 6.099367,-0.328649 12.260146,0.445759 18.304207,-0.704943 1.828856,-0.746962 6.219764,1.980194 2.054782,1.081211 -4.892922,-0.201066 -9.760133,0.807209 -14.667109,0.641939 -2.263922,0.02179 -4.528057,0.007 -6.791941,0.03407 z m 1.296607,-2.545344 c 0.273225,-0.38163 0.357137,0.360749 0,0 z m 9.80176,-0.084 c 0.621637,-1.883116 2.472524,0.833091 0,0 z M 16.635124,19.539856 c 4.103521,-2.17013 8.971182,0.568771 13.156768,-1.622388 1.770397,-0.786952 7.231962,-0.02565 6.612041,0.79262 -4.340956,-1.64678 -8.800628,0.679903 -13.229006,0.529677 -2.177105,0.15272 -4.357991,0.249482 -6.539803,0.300091 z m 21.518042,46.213215 c -0.372958,0.03286 -0.09289,0.419703 0,0 z m 7.058532,-0.516265 c -0.340362,-0.05985 0.04976,0.262327 0,0 z M 35.125153,65.089075 c 1.614578,-0.125442 0.381824,-0.887641 -0.116178,-0.100895 z m 4.148627,-0.178507 c 1.615645,-0.604831 1.738703,-2.118153 -0.0439,-0.717384 -0.305961,0.172214 -0.230492,0.598441 0.0439,0.717384 z m 3.58273,-0.418192 c 2.206474,-1.489252 -2.707637,0.06101 0,0 z M 6.8379205,44.865145 c 1.623989,-1.961176 -3.6266261,-5.365047 -2.0015698,-1.651622 0.2239596,0.885881 1.0235247,1.726751 2.0015698,1.651622 z M 53.128401,43.801883 c 3.368975,-3.520189 0.06262,-8.166597 -0.220963,-12.094508 -0.486994,-2.037829 -0.542541,2.921487 -0.220166,3.680608 0.750313,1.280817 -1.210112,5.238812 -1.26175,2.4618 1.245183,-2.975372 -2.194104,-9.108304 2.018748,-9.436065 1.340047,-2.729252 -3.141734,-5.726522 -3.069608,-1.523737 -0.05638,4.125263 -0.569845,8.320729 -0.326771,12.396162 0.67146,1.448427 1.901663,3.945967 3.08051,4.51574 z M 7.9479264,40.331198 C 9.5325266,38.243126 7.3290741,38.148672 7.7642705,40.554161 l 0.064766,0.207592 z M 5.9237213,39.537136 c -0.00261,-1.642498 -0.8367564,-2.576846 -0.4025566,-0.318471 -0.076991,0.148374 0.2394861,0.565852 0.4025566,0.318471 z m -1.8198357,-0.478508 0.00888,0.204467 z M 4.0592716,38.271832 C 4.4852299,35.228036 1.6745358,30.390317 6.26905,29.719416 c 0.6336194,-2.22155 -2.3640094,0.08995 -3.0480389,-1.633517 -3.33628132,2.201876 0.5464813,6.264441 0.4142443,9.238187 l 0.1592965,0.501653 z M 44.976726,36.674973 c -0.238225,-1.372162 -1.937356,1.060065 0,0 z m 1.160808,-0.27889 -0.211248,0.03478 z M 5.398088,34.849897 c 1.6485176,-1.729088 -1.1990025,-3.09244 -0.4477127,-0.421611 -0.15794,0.36681 0.4039448,1.419465 0.4477127,0.421611 z m 1.2613649,-7.86885 c 0.6680208,-1.35909 -0.4903307,-0.887107 0,0 z M 3.8175653,26.85484 c -0.2071286,-0.94138 -0.741312,0.687161 0,0 z m 3.3691656,-2.042991 c 1.6746751,-2.048566 -1.751136,-0.479537 0,0 z M 4.6571113,23.890886 C 4.8422076,22.281304 5.5918255,17.781463 4.2051036,17.908942 3.944389,19.883838 3.6056726,22.076573 4.6571113,23.890886 Z M 50.600197,20.400059 c 0.322716,-1.818852 0.42246,-6.081979 -2.028668,-5.987003 0.189186,1.334731 0.757435,2.970266 1.761203,2.681908 0.337605,0.483645 -0.933788,4.199847 0.267465,3.305095 z M 7.4585991,18.927091 7.3764776,19.055498 Z M 6.7935987,18.257335 C 8.5983458,14.40516 8.188686,9.4205103 11.762877,6.5120713 13.669293,3.6451363 8.4701784,8.0820643 8.2294903,9.3052463 6.9154609,12.06688 6.9124643,15.274641 6.7935987,18.257335 Z M 5.5540871,17.334386 c 1.2529995,-1.170549 0.3396686,-6.206669 -0.093506,-2.099214 -0.1125638,0.67836 -0.4562699,1.504894 0.093506,2.099214 z M 47.390328,15.161317 c 0.0794,-1.231682 -0.931917,0.767767 0,0 z m 0.103767,-1.629731 c 2.355858,-3.249947 -1.754151,-7.8630077 -4.823835,-8.6623227 -2.136329,0.186016 -2.692756,1.066303 -0.254486,0.490492 1.218972,0.871755 1.320473,3.247137 3.103072,2.65944 1.215917,1.594808 -0.874835,5.2202837 1.975249,5.5123907 z m 2.043782,-1.520356 c 0.764552,-1.951159 -1.715506,-6.4075467 -2.854237,-5.6196317 0.886639,1.891031 2.654657,3.467221 2.854237,5.6196317 z M 11.166844,11.332885 c 1.219062,-1.172277 4.42607,-4.7734707 1.196458,-1.9807717 -0.580568,0.505761 -1.311896,1.1148287 -1.196458,1.9807717 z m 1.888627,-0.118081 c 1.14685,-1.7379747 5.562054,-3.2466107 5.298621,-4.2710727 -1.989342,1.062959 -4.338803,2.067267 -5.298621,4.2710727 z m 9.810161,-1.114333 c 1.651487,-0.3361517 -1.48932,-0.3003927 0,0 z M 18.668224,9.2154593 c 1.882274,1.1327907 5.709863,-2.400835 1.606342,-1.439228 -0.496702,0.09557 -4.080396,1.643405 -1.606342,1.439228 z m 5.696188,-0.887359 c 1.235545,0.6944 4.786644,-1.326901 1.610809,-0.689269 -0.199207,-0.199086 -3.276349,0.989901 -1.610809,0.689269 z m 14.958656,-0.09185 c 2.122055,-1.175023 -0.413518,-2.509889 0,0 z M 30.44124,7.9710193 c 2.061552,-1.717147 -2.310417,0.912455 0,0 z m 11.934325,-0.317241 c 1.33614,-2.166003 -1.768224,-0.736959 0,0 z M 13.084558,7.5110613 c 1.688338,-0.103529 8.18231,-1.48655 4.560955,-3.240933 -1.557874,0.03388 -6.148583,0.819444 -4.560955,3.240933 z m 19.3482,-0.174225 c 0.606715,-1.045408 -0.759536,0.449379 0,0 z m -7.371141,-0.697491 c 1.191687,-1.265775 6.312079,-1.31574 5.641447,-2.275939 -1.801243,0.460121 -7.067108,1.002933 -6.233208,2.460835 z m 14.306406,-0.40615 c -0.656366,-2.574449 -1.314596,1.621881 0,0 z M 28.28149,6.4693443 c 1.616165,1.09844 3.295868,-1.632978 0.791464,-0.470491 0.334391,-0.02116 -1.626773,0.473121 -0.791464,0.470491 z m 4.186358,-0.485599 c 2.250744,-0.608689 -1.001248,-0.0789 0,0 z m 2.173114,0.03253 c 0.151357,-0.4205 -0.513359,0.476109 0,0 z m 1.550153,-0.773874 c 4.732602,0.476399 -1.650862,-4.82588086 -0.809317,-0.142029 l 0.357843,0.19634 z M 23.485614,5.1173833 c 1.504905,0.101724 4.171309,-1.8681177 1.169995,-0.932644 -0.235062,0.08537 -2.867705,0.894951 -1.169995,0.932644 z m -2.282251,-0.41263 c 1.772832,0.395208 3.187598,-3.5447032 0.715506,-1.7100615 -1.682558,0.03722 -4.097054,1.7363425 -0.715506,1.7100615 z M 45.990748,4.6297713 C 45.14449,2.4502311 39.24449,1.4046043 39.63199,3.7596323 c 2.026122,0.814358 4.270481,0.369628 6.358758,0.870142 z M 34.648998,4.4230033 C 34.161033,2.554693 31.947205,5.6304223 34.488435,4.5501803 Z M 34.760472,2.8680921 C 33.143173,0.16831094 26.345998,0.98748374 26.427143,2.5281219 29.207814,2.4747614 31.99901,2.503499 34.76047,2.8680921 Z M 24.771478,2.4447447 c -0.239498,-0.5472982 -0.553765,0.4112611 0,0 z M 7.2750907,49.069215 c -0.3020528,-1.246622 0.8118237,0.343905 0,0 z"
       id="path4780"
       inkscape:connector-curvature="0" />
    <path
       style="fill:#000000;stroke-width:0.03872522"
       d="m 71.304298,83.15373 c -0.0415,-0.263641 0.17179,0.167914 0,0 z m -5.64622,-0.980095 c -0.49371,-1.747176 0.6046,0.198542 0,0 z m 0.57322,0.09763 c -0.83883,0.282296 0.27484,-0.637683 0,0 z m 3.48527,-0.492278 c -0.31264,-0.342743 0.33141,-0.0064 0,0 z M 104.06585,80.904908 C 98.129308,79.474914 91.988968,79.396446 85.917338,79.24054 c -4.35394,-2.819328 0.64021,-8.14415 -1.20616,-12.087829 0.0499,-4.267785 -2.16056,-8.103224 -5.9988,-9.956507 -2.82807,-2.185057 -5.41843,-4.828379 -8.81069,-6.141949 -0.82802,-4.42347 0.90592,-9.140396 -1.03313,-13.384453 -1.30361,-6.779057 -0.52274,-13.720328 -0.70046,-20.568254 0.0887,-4.337487 3.13928,-7.6866857 6.89956,-9.4023087 3.81252,-2.799901 7.20974,-6.98048351 12.34454,-7.07936651 5.90891,-0.5135493 11.8382,0.77636071 17.737272,-0.045293 4.03276,0.053798 6.77963,3.63886751 7.77514,7.20940751 2.20483,3.7132157 6.90336,6.4272107 6.54185,11.2769437 1.37085,7.931915 1.02373,16.002869 0.69647,23.996719 0.0428,4.323039 -0.33731,9.708859 -4.39985,12.21963 -3.49617,2.938575 0.30173,7.509556 -0.53232,11.243237 0.0408,3.851089 1.48833,8.475887 -1.38853,11.660973 -2.66837,2.330591 -6.40923,2.550796 -9.77638,2.723418 z m 1.87123,-0.801074 c 2.70344,-0.681321 6.09032,-0.673781 7.80088,-3.257816 -3.91367,1.650419 -8.56082,0.424218 -12.2506,2.760372 1.38128,0.688493 2.96472,0.470062 4.44972,0.497444 z m -6.421442,-1.455012 c 1.560902,0.898317 6.299072,-1.04318 2.260862,-1.017637 1.90323,-0.398813 4.11446,-1.951952 1.43269,-3.357046 -3.318682,-4.116265 -9.287242,-0.02427 -12.643102,-2.995279 -1.48226,-2.759369 -0.46048,-10.370721 -5.43262,-8.683523 -0.13774,2.887443 2.21988,5.420401 1.25145,8.637908 -0.87013,4.019306 2.34451,6.311996 5.90617,5.722512 -0.97166,0.677193 -4.99466,0.621114 -1.72089,1.224418 2.96214,0.457392 5.9723,0.09569 8.94544,0.468647 z M 111.2633,77.545076 c 0.23861,-2.523782 -2.3638,1.327776 0,0 z m -3.98327,0.01057 c -0.30096,-0.77166 -0.68111,0.777691 0,0 z m -21.826142,-0.41575 c -0.0643,-1.033902 -0.94313,0.242971 0,0 z m 21.779932,-0.413689 c 0.11158,-1.003726 -0.55717,0.632745 0,0 z m 1.51473,-0.175151 c 1.40997,-2.479399 -2.72024,0.688686 0,0 z m -2.08811,-0.21524 c 0.94409,-2.05941 -2.24138,0.283198 0,0 z m 6.13813,-0.141976 c 2.58734,-0.513848 -1.06514,-1.637408 0,0 z m -1.21908,-0.07356 c 1.09273,-1.883598 -1.64245,0.389453 0,0 z M 85.538828,75.871084 c 1.96253,-1.779844 -1.30054,-0.84039 0,0 z m 28.855922,-0.498428 c 2.19383,-2.671256 -2.70212,-1.310195 0,0 z m -3.9586,0.07071 c 3.28806,-0.440741 -2.04484,-4.111512 -0.48487,-0.432163 0.11149,0.207232 0.2737,0.336795 0.48487,0.432163 z m 1.48042,-0.13782 -0.071,0.0028 z m -7.05377,-0.419713 c 0.71511,-1.664101 -0.83563,0.191104 0,0 z m -1.35772,-0.935059 c 0.31704,-1.654217 -0.88284,-0.04441 0,0 z m 4.54085,0.272302 c -0.22041,-0.201585 -0.18877,-0.17264 0,0 z m -0.81777,-0.218991 c 1.13889,-0.427574 -0.25842,-0.925662 0,0 z m -1.04104,0.02538 c 0.87047,-1.000958 -1.29388,-0.922564 0,0 z m -1.8502,-0.675492 c -0.0162,-0.214559 -0.0945,0.158085 0,0 z m 0.79077,-0.203305 c 0.51132,-3.287212 -3.25506,-0.574349 0,0 z m 3.80106,-0.0354 c 0.88817,-0.348913 -0.68388,-0.442837 0,0 z m 3.83482,-0.06206 c 0.77837,-0.528597 -0.78885,-0.148532 0,0 z m 1.51298,-0.24413 c 1.55752,-2.69393 -2.62889,-1.302462 0,0 z m -3.88812,-0.327866 c 0.94451,-0.720959 -0.70796,-0.435849 0,0 z m -3.12775,-0.356949 c 1.4103,-2.245282 -2.41414,-0.138693 0,0 z M 97.022308,72.005136 c 3.878212,-0.541607 -1.79216,-3.960156 -2.38808,-5.384265 -3.33512,-3.821684 -6.55161,2.462176 -3.05001,4.611291 1.54807,1.079858 3.6499,1.348666 5.43809,0.772974 z m 18.448112,0.03218 c -0.10175,-0.262142 -0.10174,0.262169 0,0 z m -7.0134,-0.06124 c 3.30017,-0.771292 -2.00878,-2.303375 0,0 z m 3.3607,-0.277599 c 2.79517,-1.707325 -2.94408,-3.514524 0,0 z M 100.9291,71.154712 c -0.007,-1.187399 -1.306802,0.149893 0,0 z m 9.94191,-0.09235 c 1.46526,-2.087289 -1.399,-2.591281 0,0 z m -8.3587,0.02115 c 2.20287,-1.961486 -2.600042,-0.966211 0,0 z m 1.43736,-0.608029 c -0.11583,-1.389933 -0.54722,1.003808 0,0 z m 4.55383,-0.453172 c 2.65943,-0.982937 -1.57414,-4.836692 -0.66085,-1.113723 -0.10919,0.433441 0.0462,1.218138 0.66085,1.113723 z m 0.21982,-0.272247 c 0.2726,-0.06124 -0.25755,0.379126 0,0 z m -9.155382,0.192326 c -0.003,-0.530307 -0.6482,0.841815 0,0 z m 15.142552,-0.08726 c 0.96557,-1.758007 -1.21325,-5.63645 -0.62804,-1.508958 0.0921,0.540467 0.28623,1.073982 0.62804,1.508958 z m -10.38008,-0.193926 c 0.79513,-1.236905 -1.33184,0.335405 0,0 z m -2.34028,-0.449062 c -0.53493,-3.006524 -2.665682,0.99591 0,0 z m 9.4335,0.03696 c -0.0945,-0.158149 -0.0162,0.214523 0,0 z m -0.21298,-0.07742 c -0.0945,-0.15815 -0.0162,0.21455 0,0 z m 0.38883,-0.04138 c -0.17178,-0.126289 0.054,0.361243 0,0 z m -0.19163,-0.09424 c 0.46278,-0.485556 -0.55123,-0.157617 0,0 z m -2.1749,-0.0537 c 0.16618,-0.195287 -0.23888,0.04533 0,0 z m 4.07483,-0.440051 c 0.51174,-1.114237 -0.8034,-1.308825 0,0 z m -14.466132,0.125858 c 2.371772,-2.870929 -3.23079,-0.966882 0,0 z m 12.426542,0.10013 -0.0691,0.01352 z m -2.10288,-0.06859 -0.007,0.06997 z m -5.08011,-0.108204 c 2.89629,-2.820772 -3.95709,-1.859986 0,0 z m 7.17126,-0.162876 -0.007,0.06997 z m -8.66218,-0.06547 c 1.14376,-3.025493 -3.037632,0.139346 0,0 z m 3.73699,-6.07e-4 c 2.41945,-2.045076 -2.45179,-1.63271 0,0 z m -9.390872,-0.253481 c 0.55659,-2.797224 -2.53622,-1.020699 0,0 z m 4.224032,-1.257877 c -0.0555,-0.856554 -0.61072,0.548209 0,0 z m 6.27347,0.06491 c 0.39994,-0.394289 -0.44981,0.08579 0,0 z m -0.059,-0.250943 c 1.79447,-1.87958 -0.89709,-3.22295 0,0 z m 3.29246,-0.453034 c 0.90422,-0.819086 -0.70695,-1.336005 0,0 z m -20.588042,-0.08542 c 2.94753,-3.55203 -3.99284,-0.815748 0,0 z M 101.5488,65.878292 c -0.57753,-1.545452 -1.47895,1.127285 0,0 z m 4.34216,0.01526 c 1.22399,-1.581578 -2.04263,-1.026041 0,0 z m 7.43286,0.024 c 0.8895,-0.785516 -0.89079,0.171252 0,0 z M 94.732578,65.409055 c 0.80891,-2.88862 -3.04509,-0.104047 0,0 z m 8.655672,-0.109739 c 4.00122,-0.0037 -1.28417,-4.080552 0,0 z m 9.50705,-0.04322 -0.0743,0.04285 z m 0.24822,-0.227782 c 0.98757,-0.313384 -0.67851,-0.537662 0,0 z m -11.25941,-0.257425 c -0.89767,-1.636517 -0.81204,1.512121 0,0 z m -2.808332,-0.05002 c -0.0347,-1.030252 -0.47042,0.762658 0,0 z m 11.399202,-0.177486 c 2.16673,-2.03339 -2.2458,-3.012363 0,0 z m -1.93245,-0.241748 c 0.97633,-0.585696 -0.82341,-1.086662 0,0 z m -1.65088,-0.381444 c 1.08398,-0.133701 -0.21347,-0.863681 0,0 z m 6.09644,6.07e-4 c 0.45599,-0.293561 -0.31601,-0.124755 0,0 z m -11.01705,-0.307895 c 1.35335,-0.05682 0.26384,-0.658638 -0.13883,-0.07503 z m 10.26971,-0.327609 c -0.20854,-1.38025 1.64272,-5.233196 -0.20006,-5.213722 -0.15385,1.734257 -0.22249,3.509247 0.20006,5.213722 z m -3.52778,-0.12675 c -0.34132,0.188079 0.51996,0.264993 0,0 z m -2.18759,-0.222411 c 3.65936,-0.629987 -1.06158,-2.665923 0,0 z M 94.152258,62.665806 c 4.23271,0.235863 9.542192,0.21032 12.128722,-3.777218 4.50739,-4.928445 8.92686,-11.045624 8.19469,-18.093279 0.56642,-2.736209 1.61278,-9.575197 -2.30943,-8.791806 -1.04589,1.998193 -2.65587,1.604911 -1.6212,-0.545743 0.14373,-5.805771 -8.85498,-8.844092 -12.128872,-3.954122 -2.99979,3.33668 -0.31783,10.025181 4.490502,9.04491 1.47822,-0.27891 6.59903,-1.186384 2.67652,0.450835 -4.07884,1.96422 -7.831792,-0.781559 -9.896602,-3.877953 -2.48974,2.465834 3.56631,3.781894 4.428982,6.303355 3.66654,4.710799 -3.078122,6.600094 -6.666462,6.417477 -2.26191,0.620682 -8.35059,0.660376 -5.89138,-2.871424 2.61638,3.543293 9.75783,-0.09111 6.27325,-4.040754 -0.55239,-3.426069 -4.40313,-3.871707 -6.65721,-1.806749 -3.97976,0.918685 -8.47633,-1.071749 -10.23599,-4.809605 -4.46016,1.12267 -0.52896,6.829343 -0.0514,9.767415 1.68821,5.258563 2.81101,10.930119 6.07731,15.487234 2.66863,3.284491 6.86941,5.590302 11.18862,5.097427 z m 0.87131,-6.115431 c -4.52589,-0.750466 1.84747,-4.745195 1.54221,-0.568925 -0.28425,0.541377 -0.98327,0.745951 -1.54221,0.568925 z m -10.5982,-0.110889 c 2.16763,-0.503945 2.5098,-9.182475 3.80827,-4.668648 -0.5181,1.946867 -1.25399,4.784649 -3.80827,4.668648 z m 2.34066,-1.179979 c 1.13386,-0.422609 -0.7164,-0.693128 0,0 z m 0.91517,-5.05937 c 1.0081,-1.268709 -1.65035,-0.51074 0,0 z m 18.475872,5.373416 c -1.86122,0.209493 1.67557,-0.768818 0,0 z m -1.75177,-0.287492 c -1.73392,-1.002466 -1.5003,-8.285887 0.21837,-4.123152 0.39443,1.337706 0.50474,2.870139 -0.21837,4.123152 z m 0.22872,-1.227038 c 0.60567,-1.0393 -1.05682,-1.060237 0,0 z m -0.36454,-1.960402 c 1.12,-0.562654 -0.53697,-0.19468 0,0 z m -15.451632,2.257263 c -0.31274,-4.625764 8.53373,-5.384817 9.48403,-2.058353 -2.83637,1.39373 -6.98321,-2.24245 -9.48403,2.058353 z M 108.46272,34.760125 c -1.6295,-1.768215 2.27694,-0.729974 0,0 z M 101.25834,32.4797 c -0.26468,-1.510596 -4.542932,-1.050972 -1.629382,-2.779886 2.174062,-2.794175 9.562582,0.817234 4.109322,2.52664 -0.78349,0.293124 -1.65338,0.479111 -2.47994,0.253246 z m 8.15447,-0.08299 c -1.0465,-1.602164 1.77038,-0.390007 0,0 z M 98.971668,29.591306 c -0.98286,-3.599756 7.762782,-1.060383 2.566482,-1.157106 -0.92474,0.197805 -1.804682,0.597441 -2.566482,1.157106 z m 14.718352,32.194197 c -0.34605,-0.472802 0.32952,1.382816 0,0 z m 0.63808,-0.399741 c 0.43713,-1.057193 -0.89804,-0.984646 0,0 z m -8.19868,-1.004663 c 1.76685,-0.352646 -0.38082,-0.759743 0,0 z m 3.76684,0.07724 c 0.93356,-0.373132 -0.31642,-0.813542 0,0 z M 81.169608,57.878064 c 1.68415,-2.916902 -4.98567,-3.246929 -1.57439,-0.330082 0.45165,0.316897 1.03361,0.437836 1.57439,0.330082 z m 28.738962,-0.76034 c 1.52698,-1.78492 -1.02324,0.236461 0,0 z m -0.0918,-1.151752 c -0.19813,-0.26091 -0.0608,0.70155 0,0 z m -31.589872,-0.53696 c 0.65697,-2.654182 -2.67264,-0.617409 0,0 z m 32.710892,0.02758 c 1.63273,-0.58519 -0.9961,-1.543218 0,0 z m 3.32556,-0.53701 c 1.85181,-1.559593 -2.13717,-0.01434 0,0 z m 2.48629,-0.907006 c 3.02133,-2.079979 -2.08954,-1.030556 0,0 z m -1.43406,-0.524753 c -0.0945,-0.158076 -0.0162,0.214559 0,0 z m -3.44821,-0.113491 -0.0399,-0.04698 z m 0.21464,-0.453273 c -0.75753,0.48049 0.88139,1.329128 0,0 z m 1.85881,0.16922 c 3.81584,0.663465 -0.3355,-5.708601 -0.58333,-1.080768 -0.0232,0.421579 0.14467,0.923584 0.58333,1.080768 z m -36.036662,-0.03439 c -0.59198,-2.781152 -2.81938,1.004801 0,0 z m -2.34004,0.0064 c 0.17965,-0.955149 -0.74279,0.282637 0,0 z m 3.36909,-1.215315 c 0.86806,-0.745675 -0.86604,-0.491642 0,0 z m -4.65618,0.01517 c -2.06993,0.451995 -3.66747,-6.403055 -3.97886,-2.162144 0.2246,1.721274 2.36805,3.361984 3.97886,2.162144 z m 3.48898,-0.189375 c 2.03615,-2.114827 -4.00776,-0.961917 -0.40492,-0.424724 0.17615,0.09953 0.26979,0.283309 0.40492,0.424724 z m -3.80112,-1.018538 c 3.42379,-1.133997 -2.66686,-5.530278 -1.11801,-1.077955 0.0705,0.53061 0.49942,1.200199 1.11801,1.077955 z m 44.816592,-0.331894 c 2.75155,-1.750807 -1.548,-2.874165 0,0 z m -0.92942,-0.332629 c 2.76891,-4.145991 0.71124,-9.318042 1.98442,-13.843639 -0.0901,-2.466563 1.4203,-8.771702 -1.25837,-8.391591 -0.0874,5.996459 -0.69201,11.973597 -0.72205,17.971747 -0.66934,1.534006 -4.27519,4.746078 -0.004,4.263483 z m 1.47157,-13.697314 c 0.22142,-0.169478 -0.11315,0.337272 0,0 z m -4.89057,13.292755 c 2.645,-0.222862 -1.42442,-2.439135 0,0 z m 0.24355,-0.610632 c -0.34648,-0.49807 0.61753,0.131273 0,0 z m -39.035052,-0.03742 c 0.10053,-1.035576 -0.80723,0.44292 0,0 z m 0.9904,-0.350457 c 3.02229,-1.612004 -3.59998,-3.727025 -0.96577,-0.644441 l 0.43325,0.391383 z m -4.54647,-0.5836 c 2.38312,-1.726993 -1.44647,-2.784546 0,0 z m 43.113902,-0.323167 c -0.11489,-0.219846 -0.0594,0.255862 0,0 z m 0.1677,-0.347046 c 1.85284,-1.036073 3.41642,-7.127619 -0.002,-6.130744 -0.64872,2.025598 0.65244,4.106345 0.002,6.130744 z m 1.71048,-0.872802 c -0.0571,-0.306691 -0.12011,0.26137 0,0 z M 74.634708,45.026911 c 2.02884,-1.083157 -1.46778,-0.02541 0,0 z m -1.26218,-0.284299 c 1.4066,-2.422339 -2.45104,-2.058907 -0.98964,-0.254277 l 0.40947,0.159992 z m 2.38645,-0.454454 c -0.14776,-0.704014 -0.35268,0.728271 0,0 z m -4.30758,-0.659036 c 1.76431,-1.719722 -2.72365,-3.86707 -0.39711,-0.907392 0.1425,0.297981 0.26565,0.604524 0.39711,0.907392 z m 3.57573,-0.02657 c 0.53046,-1.418651 -1.81978,-5.707436 -1.66014,-2.049809 0.11844,0.891822 0.63596,1.96571 1.66014,2.049809 z m 0.61308,-1.936233 c 0.83194,-0.933777 -1.01348,-0.263887 0,0 z m -2.97369,-1.605734 c 0.34215,-1.755207 -0.55577,0.707169 0,0 z m -1.73331,-0.04716 c 0.12638,-1.034899 -1.07778,-1.095634 0,0 z m 28.13712,-0.09857 c 0.51508,-0.846618 -0.87705,-0.326605 0,0 z m 17.132112,-0.271168 c 2.71915,-1.287649 -1.61404,-7.593889 -1.04973,-2.816379 0.0162,1.014613 0.2976,2.089817 1.04973,2.816379 z M 72.453618,39.139562 c 0.75768,-1.146438 -1.10634,-1.09107 0,0 z m -0.11939,-1.743481 c -0.51474,0.01511 0.52451,0.483499 0,0 z m 13.25972,-1.438677 c 4.12758,0.919051 8.49852,-4.768333 5.36135,-8.17226 -3.36309,-2.669468 -8.90908,-2.171657 -11.5891,1.23888 -0.91276,3.581687 2.68482,7.238642 6.22775,6.93338 z m -2.36224,-2.563482 c -1.16847,-3.079053 5.39659,0.354899 1.05281,-0.09117 -0.35261,0.01163 -0.70232,0.05363 -1.05281,0.09117 z m -2.41938,-0.776928 c -2.37707,-1.681481 4.30636,-3.354087 1.10248,-2.941295 0.81921,-4.969938 9.95304,1.090676 4.27155,2.126539 -1.77389,-0.05096 -4.1365,-1.009487 -5.37403,0.814756 z m -11.31292,2.978859 c 1.1959,-4.549934 -0.57881,-9.844601 2.47165,-13.864002 1.71266,-4.087665 1.953,-8.768616 4.53134,-12.4868607 0.18387,3.1239427 -4.05158,7.1505497 -2.11086,9.4043317 2.62973,-2.231302 3.42454,-5.875615 5.02817,-8.8161857 -0.0246,-1.400268 3.08944,-5.494341 1.62857,-2.078165 -2.026,4.7738817 -4.42118,9.4096097 -7.39029,13.6695067 2.60573,0.284988 2.60724,-4.5982 4.99887,-5.742568 2.58553,-3.532198 4.67719,-7.4431407 6.0329,-11.6109497 3.3465,2.380182 1.38122,-5.8173965 -1.41472,-2.3244726 -2.63625,2.5997216 -5.58557,4.7931756 -8.65504,6.8385946 -3.45364,2.5155377 -4.93207,6.8698137 -4.81315,11.0063717 1.895,-1.14181 0.90773,-5.986331 2.91601,-7.64998 -0.67823,6.155707 -4.62347,11.675338 -3.95595,18.033184 -0.005,1.894414 0.20704,3.797677 0.7325,5.621195 z m 4.71238,-13.45877 0.0277,0.024 z m 4.41162,-16.7829417 0.11489,0.02158 z m -4.47016,30.1607117 c 3.4732,-2.382555 -4.58888,-5.937692 -2.55322,-1.611409 1.53666,-1.248538 2.42785,0.100943 2.55322,1.611409 z m 43.359982,-0.07587 c 1.42394,-1.505774 -0.48418,-7.976002 -0.8809,-3.332719 0.0957,1.151475 0.41086,2.279254 0.8809,3.332719 z M 97.026978,31.515164 c -1.84654,-4.13197 2.96509,-7.4243 6.650482,-7.541277 4.19137,-1.106139 6.34798,6.345723 9.62802,4.40676 0.19591,-3.768993 -4.04891,-4.359118 -5.84293,-6.895659 -2.96952,-2.054589 -6.7336,-1.707092 -10.120152,-2.065772 -3.47314,-1.111139 -5.14574,-5.495452 -8.97735,-5.650305 -1.17043,0.902021 -2.83138,4.629513 -4.63049,1.751943 -4.96723,0.0084 -3.06767,9.499031 1.41291,6.381551 3.95155,1.334967 -1.93396,4.096621 -3.45603,2.030901 -3.05197,-0.04915 -1.94589,3.851787 0.65167,1.962991 3.52493,-0.871324 8.79842,-1.716987 10.47685,2.526419 0.76744,1.600002 2.06618,3.82589 4.20702,3.092448 z m -11.64499,-6.875438 c -0.36479,-0.604561 0.62583,0.116998 0,0 z m 13.22364,-0.339604 c -0.94153,-3.325657 7.373902,-4.428008 5.936612,-0.980401 -1.99624,0.03542 -4.19666,-0.223826 -5.936612,0.980401 z m 16.717542,6.94766 c 0.34834,-1.117112 -0.35089,-0.724255 -0.1371,0.05876 z m -0.17881,-0.165183 0.0277,0.024 z m -44.326782,-0.24849 c 3.40826,0.340984 -0.48638,-5.606195 -0.25113,-1.41568 -0.1476,0.441706 -0.19721,1.106558 0.25113,1.41568 z m 44.378232,-0.407081 -0.15176,0.06022 z m -40.212572,0.05854 c 0.71308,-0.799242 -0.92206,-0.04278 0,0 z m 39.206532,-0.215753 c 0.24605,-0.55806 -0.50531,0.442068 0,0 z m 1.91965,-0.132777 c 0.7702,-0.550738 -0.76753,-0.274534 0,0 z M 76.601088,29.69469 c 0.98635,-1.606798 -1.58206,-0.165834 0,0 z m 39.325972,-1.00012 c 1.75022,-1.015667 -1.26966,0.109828 0,0 z m -1.17075,-0.22687 c 0.85279,-1.071687 -0.85459,0.276926 0,0 z M 75.459518,27.90802 c 1.24504,-2.321009 -2.63909,-1.14919 0,0 z m 39.100912,-0.288072 c -0.0484,-0.697713 -0.33933,0.538152 0,0 z M 76.596878,27.391222 c 3.89783,0.351965 -0.66001,-6.618964 -0.19419,-2.043483 0.16401,0.654241 -0.53937,1.575026 0.19419,2.043483 z m -0.54869,-1.320276 0.0681,-0.04474 z m 39.774692,1.262441 c 2.74752,-1.83177 -3.71247,-4.043981 -2.25037,-0.87579 0.7339,-1.362939 1.89318,0.05702 2.25037,0.87579 z M 70.887388,26.387785 c 2.19216,-1.712929 -0.85099,-2.544295 0,0 z m 46.178302,-0.326519 c 2.09191,-0.787141 -1.04458,-1.359391 0,0 z m -40.565642,-0.270369 0.0175,0.08854 z m 40.861272,-1.173826 c 3.72218,0.988489 -0.14458,-5.638718 -0.65489,-1.557897 -0.4492,0.490453 -0.30917,2.048084 0.65489,1.557897 z m -3.8852,-0.414186 c 2.00544,-2.218579 -2.68744,-0.161597 0,0 z m -37.703602,0.0266 c 0.23904,-0.364434 -0.26664,0.0741 0,0 z M 110.31477,24.07119 c 2.6912,-1.526468 -1.89058,-6.391258 -1.10709,-1.734024 0.16727,0.674176 0.52393,1.330413 1.10709,1.734024 z M 75.872078,24.04532 c 2.76612,-1.582828 -2.23114,-1.836104 0,0 z m 40.142592,-0.792274 c 2.19854,-1.343859 -1.863,-0.489695 0,0 z m -36.384112,-0.53245 c 2.14301,-2.492231 -2.17055,-2.62819 0,0 z m 34.999322,-0.04185 c 4.38456,-0.636474 5.09875,-6.515478 2.85073,-9.606552 -1.6869,-3.8223407 -7.62595,0.85219 -4.20535,1.97113 -2.00012,2.171667 2.72957,1.629574 0.2393,3.203562 -1.7028,2.098349 0.25593,3.498856 1.69763,1.233256 3.51351,-0.715841 -2.95194,2.162987 -0.58231,3.198604 z m -2.69401,-0.503775 c 1.36497,-2.171992 -2.05525,-0.162292 0,0 z m -35.471082,-0.09311 c 0.86253,-0.156169 -0.58169,-0.769461 0,0 z m 31.860832,-0.911333 c -1.71847,-1.131415 2.29619,-5.304701 -1.36737,-3.257861 -1.49094,0.934276 -0.36785,3.709933 1.36737,3.257861 z M 78.560118,20.665012 c 1.93199,-1.955328 -0.7896,-2.430169 0,0 z m -9.5223,-1.187219 c 1.47598,-1.318602 -0.86042,-3.78064 -0.45842,-0.98778 -0.0718,0.343239 0.0189,0.918554 0.45842,0.98778 z m -0.36562,-1.879655 c 0.42827,-0.683855 0.20136,0.807866 0,0 z m 40.040712,2.176864 c 4.33054,-0.83031 -1.38599,-1.985175 0,0 z m -9.819622,-0.464816 c 3.074502,-0.494379 8.276202,-0.530348 8.347002,-4.746259 -1.74465,0.53185 -3.57416,3.375431 -5.34442,2.20856 2.31292,-0.02516 3.6542,-5.574157 0.52888,-2.766353 -1.23388,1.909095 -5.671382,0.889662 -2.926012,-1.356897 -4.30608,-0.284883 -5.75465,6.93257 -0.60545,6.660949 z m 13.361202,-0.187628 c 2.22056,0.174349 -0.48824,-2.13807 0,0 z m -7.93999,-0.05631 c 1.05361,-0.275206 6.06979,-3.029691 2.87355,-2.268166 -0.94519,0.770177 -1.78555,1.689571 -2.87355,2.268166 z M 78.700868,18.204717 c -0.31276,0.01735 0.35827,0.302478 0,0 z M 111.76172,16.056 l -0.071,0.0028 z m -7.20849,-0.369588 c 2.30364,0.523206 1.67943,-3.034288 0.17697,-0.681419 -0.14679,0.04779 -0.86839,0.890472 -0.17697,0.681419 z M 92.423738,15.247726 c 1.26608,-0.755107 6.9864,-2.163803 3.47652,-3.237104 -1.34669,0.263106 -7.09952,1.36749 -3.47652,3.237104 z m 6.03484,0.09865 c 1.23743,-0.271729 6.387552,-3.276788 2.922292,-2.786816 -1.10982,0.778576 -1.940172,1.866975 -2.922292,2.786816 z m -15.05733,-0.448621 c 2.34179,-0.0081 -0.79334,-2.263157 0,0 z m 2.6912,-0.264177 c 3.27911,-2.093138 -2.38897,-1.115615 0,0 z m -16.24718,-0.165176 c -0.23296,0.02501 0.29301,0.184773 0,0 z m 40.343292,-0.511978 c 2.56206,0.156617 -0.68626,-2.127962 0,0 z M 81.829168,13.657539 c 3.56157,-2.275072 8.7538,-1.548963 11.36682,-5.3404067 0.68533,-0.806649 5.64575,-3.413638 3.2681,-3.334504 -4.68175,2.560531 -9.22556,5.3665087 -13.93839,7.8710927 l -0.36839,0.383452 z m 27.654502,-0.560034 c 3.92763,1.829851 3.45669,-6.8523127 0.0948,-2.704619 -0.79248,0.612 -2.26295,2.928222 -0.0948,2.704619 z M 93.516458,12.439178 c 0.43068,-0.311481 -0.39465,-0.01082 0,0 z m 0.32592,-0.193621 c -0.11489,-0.219843 -0.0594,0.255859 0,0 z m 13.459562,-0.171751 c 4.58885,-1.373713 5.07012,-9.2639819 0.14351,-10.499105 -4.62561,-1.53171051 -7.836312,3.0072003 -11.356262,4.9949383 -1.82455,0.539941 -4.56178,4.8973157 -0.72177,3.7123217 3.27496,-0.8102247 5.774692,-7.2649242 8.273102,-6.1615867 -1.31172,2.57956 -7.599642,3.925398 -5.981012,6.9636497 3.481182,0.275594 5.687402,-3.0082977 8.150272,-4.9173457 3.60972,-2.098595 -0.91921,1.167212 -1.68789,2.440429 -0.51813,2.1722387 3.93315,-3.055844 3.99762,-1.48634 -2.84755,0.901309 -3.2372,4.2567967 -0.81757,4.9530387 z m -10.397212,-1.322402 0.0277,0.02399 z m 10.843072,0.02955 c -0.28345,-0.8384907 0.69602,0.100282 0,0 z m -4.54681,-0.768515 c 0.29227,-0.4756737 0.2059,0.616734 0,0 z M 93.764928,9.5386253 c 0.0809,-0.73876 0.76587,0.456601 0,0 z m 0.6881,-0.39854 c 0.66483,-1.22922 3.69939,-1.686442 1.11278,-0.506108 l -0.54253,0.283858 z m 8.238672,-1.501805 c -0.11351,-0.305641 0.2544,0.122723 0,0 z m 2.20674,-1.278916 c 0.0479,-0.373894 0.19713,0.270881 0,0 z m -5.449832,-0.14364 c 0.17668,-0.895833 0.864262,0.485869 0,0 z m -16.32047,4.7527207 c 2.68654,-2.3931487 4.42111,-5.7547177 7.49535,-7.7281567 -1.68861,0.846874 -1.44077,3.42742 0.30326,1.408772 3.70409,-1.8076267 -1.13875,-6.0726412 -2.8547,-2.3212532 -2.65039,2.2072772 -3.19376,5.8314942 -4.94391,8.6406379 z m 2.64646,-0.602729 c 3.56578,-2.4328047 7.24187,-4.7593457 10.3861,-7.7418308 1.54488,2.2971341 -5.38922,4.0158781 -0.60072,2.7686801 2.82494,-0.03371 5.423342,-5.20008871 0.96505,-4.1993956 -4.46152,1.0163885 -6.57087,5.5765376 -10.01039,8.1349086 -0.27322,0.325795 -0.52418,0.671007 -0.74004,1.0376377 z m 1.49803,-2.7465417 c -0.0837,-0.309146 -0.11367,0.353997 0,0 z m 7.7695,-3.022264 c 1.54843,-0.283936 0.0363,-0.999332 0,0 z m 7.281082,0.09618 -0.15351,0.03065 z m -8.775262,-2.625769 h -0.0668 z m 0.19763,-0.045192 c -0.26219,-0.1278354 0.0629,0.3737193 0,0 z m 0.25171,77.8777957 c 0.0155,-0.370676 0.2243,0.292237 0,0 z m -15.79989,-74.6395007 0.11777,-0.09903 z"
       id="path4782"
       inkscape:connector-curvature="0" />
    <path
       style="fill:#000000;stroke-width:0.03444868"
       d="m 173.46374,78.372087 c -4.28353,-0.85905 -8.74644,-0.45443 -12.94922,-1.79322 -4.02253,-0.86763 -8.63281,-1.72099 -11.38611,-5.02404 -1.60654,-3.69768 0.58007,-7.96301 -1.36152,-11.58358 -0.71613,-4.82763 -7.36106,-5.7288 -7.92888,-10.67464 -0.0378,-2.16901 2.12696,4.44318 1.14528,0.36431 -0.25249,-4.23492 -4.87285,-5.23669 -6.85609,-8.24799 -0.37324,-3.22118 -2.25155,-6.82627 -0.21263,-9.89317 1.62137,-3.52208 -2.41204,-7.26514 -0.33529,-10.91464 0.14083,-3.94853 2.92226,-6.425584 5.46003,-8.928744 1.38183,-4.5514396 6.00551,-5.4783276 9.28406,-8.1747836 2.55108,-2.51161297 5.94611,-0.960359 8.77447,-1.46919 1.01342,-1.86791897 -0.0908,-1.75678797 0.91228,0.158664 2.91754,2.947632 6.90056,-0.267602 10.24865,-0.317582 4.31921,0.52293 7.21107,4.450741 9.54107,7.658752 0.72776,3.3005196 1.22861,6.5776596 2.33746,9.7651336 0.46286,3.00451 -0.0839,6.11905 0.79462,9.06663 4.10225,-0.26741 2.96373,3.75665 2.84825,6.41562 -0.18827,2.85987 -0.49709,5.72182 -1.14594,8.51751 -2.73598,3.27457 -1.17342,7.95321 -3.05103,11.52609 -1.04954,1.2374 -1.88332,-1.24782 -2.97638,0.68223 -1.27878,0.67791 -2.68289,3.52108 -0.11233,1.84715 0.91388,3.87018 -0.5576,7.92905 0.23643,11.84842 1.33749,3.07363 2.75215,8.53941 -2.12656,9.10729 l -0.57053,0.0623 z m 0.75364,-0.0213 -0.10216,0.0192 z m -0.4306,-0.0355 -0.0475,-6.1e-4 z m 0.24105,-0.0632 -0.11677,0.063 z m 0.34549,0.0354 -0.0558,0.0322 z m -1.06092,0.006 -0.0632,0.002 z m 1.30493,-0.0767 -0.17711,0.0828 z m 0.47849,-0.10917 c -0.0912,-0.15488 -0.0494,0.20456 0,0 z m -8.15571,-0.23044 -0.11927,6.1e-4 z m -0.85261,-0.0796 -0.0475,-6e-4 z m 2.42455,-0.1568 -0.0402,-0.001 z m 5.24028,-0.35993 c -0.0494,-0.20456 -0.0912,0.15487 0,0 z m -0.18675,-0.0603 -0.39297,-0.0243 z m 0.29154,0.0283 c 0.84451,-0.16484 -0.58129,-0.33111 0,0 z m -0.45404,-0.12294 -0.12167,-0.0873 z m 0.15978,-0.0344 c -0.0914,-0.16164 -0.0411,0.33386 0,0 z m 3.44486,-0.0898 c -0.13606,-0.17837 -0.0449,0.22871 0,0 z m -14.2962,-0.009 -0.11609,-0.0194 z m 10.748,-0.0424 -0.17074,0.0161 z m -6.4419,-0.0304 c 0.0614,-2.12874 -4.88427,-0.36628 -4.27018,-3.37922 -3.35823,-3.58719 -6.80816,-7.3991 -11.46707,-9.28015 -3.36453,1.68784 -2.71144,7.54904 0.78424,8.84955 4.58823,2.56489 9.98745,2.53311 14.95301,3.80982 z m 0.26913,-0.72974 0.0621,0.006 z m -16.05102,-3.68832 0.0315,0.0173 z m 26.28872,4.22489 c -0.14176,-0.17124 -0.0306,0.19664 0,0 z m -16.59237,-0.015 c -0.11302,-0.14694 0.0444,0.17981 0,0 z m 10.75048,-0.0548 c 2.37434,0.47563 1.99397,-2.92031 0.0929,-0.7008 -0.21273,0.1386 -0.39345,0.52465 -0.0929,0.7008 z m 2.19306,-2.04793 0.0244,0.0213 z m 3.82548,2.02673 -0.0316,0.0173 z m -16.85914,0.005 -0.0631,0.002 z m -1.76476,-0.39257 -0.062,-0.0264 z m -0.18315,-0.0763 c -0.13053,0.0791 0.25569,0.0621 0,0 z m -0.41971,-0.0515 -0.14449,-0.0489 z m 7.87152,-0.0443 -0.1953,-0.0151 z m 0.33588,0.0117 -0.084,0.001 z m -0.74137,-0.067 -0.0631,0.002 z m -4.59817,-0.0365 -0.084,10e-4 z m 3.69713,-0.0984 c -0.13996,-0.35002 -0.11595,0.12338 0,0 z m -0.22644,-0.0165 -0.0475,6.1e-4 z m 9.46916,-0.2539 c -0.19684,-0.42213 0.0472,0.29238 0,0 z m -1.80433,0.0127 c -0.0495,-0.20455 -0.0912,0.15488 0,0 z m -8.14867,-0.0535 -0.11525,-0.0851 z m 8.52761,-0.0497 c -0.0912,-0.15486 -0.0494,0.20456 0,0 z m -13.6589,-0.0344 c -0.0133,-0.32312 -0.19333,0.09 0,0 z m 10.02998,-0.0639 c 0.69517,-1.14184 -1.12128,0.35848 0,0 z m 1.59522,-0.0179 c 2.62889,-1.14589 -1.52494,-0.74203 0,0 z m -6.01007,-0.33729 c 0.84471,-1.04075 -1.05382,-0.82281 0,0 z m -9.81786,-0.0997 c -0.13421,-0.14821 -6.1e-4,0.21773 0,0 z m 14.39955,0 c -0.11883,-0.13416 0.007,0.20034 0,0 z m 0.91288,0.0365 c -0.13126,-0.18228 -0.0459,0.22072 0,0 z m 0.29281,-0.13782 -0.0475,6.1e-4 z m 0.33516,-0.0897 -0.0632,0.002 z m 2.62743,-0.0632 -0.0673,-0.0198 z m -1.99803,-0.0517 c 0.006,-0.2004 -0.11884,0.13424 0,0 z m 7.02511,-0.18946 -0.0748,0.13027 z m -6.66638,0.0278 c -0.042,-0.2524 -0.12272,0.25884 0,0 z m -0.15203,0.009 -0.10473,-0.0881 z m -18.92164,-0.11116 -0.0631,0.002 z m 13.51333,-0.005 c 1.83163,0.10029 -0.2539,-1.52129 0,0 z m 5.28749,-0.008 -0.0526,0.0227 z m 0.43273,-0.15315 c 0.87931,-1.23193 -0.70412,-0.29646 0,0 z m 0.97161,0.11831 c 1.98865,-1.03023 -0.62076,-2.31657 0,0 z m -20.68745,-0.0897 -0.0631,0.002 z m 19.21445,-0.0136 -0.0475,-6.1e-4 z m 0.25251,-0.41338 -0.12899,0.0271 z m -2.77155,-0.062 c 0.13639,-0.25422 -0.23181,0.0715 0,0 z m 0.15932,-0.0796 c 0.27457,-0.27924 -0.49813,-0.006 0,0 z m 0.21108,-0.0911 -0.09,0.005 z m 8.33219,-0.008 c -0.11257,-0.36734 -0.0334,0.16416 0,0 z m -8.21601,-0.12358 c -0.041,-0.52282 -0.38495,0.36086 0,0 z m -6.69028,-0.11756 c -0.0683,-0.34879 -0.0594,0.18937 0,0 z m 6.78675,-0.0572 c -0.25563,-0.0788 0.19468,0.30991 0,0 z m 2.57331,-0.0118 c 0.0439,-0.46228 -0.26805,0.0983 0,0 z m -2.67776,-0.1031 c -0.0567,-0.20547 -0.1363,0.47572 0,0 z m 0.20795,-0.001 c -0.14933,-0.0913 0.0414,0.23041 0,0 z m -0.0969,-0.13542 -0.0526,0.0227 z m 1.08829,-0.074 c 1.18193,-1.11309 -0.83049,0.10123 0,0 z m -0.14994,-0.0987 c 0.0605,-0.47313 0.18731,0.10766 0,0 z m 1.07714,0.0688 h -0.066 z m -8.16434,-0.084 -0.0673,-0.0198 z m 7.29221,-0.0947 -0.006,0.0623 z m 1.10527,-0.17256 c 1.50674,-0.82043 -0.66112,-0.23492 0,0 z m -8.44934,0.0411 c -0.25533,-0.32268 0.0442,0.205 0,0 z m 2.0691,-0.1 c -0.36438,-0.18169 0.0246,0.34508 0,0 z m 9.10703,0.0285 c 2.47132,-0.39735 -0.61016,-4.13496 -0.30619,-0.98734 0.0905,0.11525 -0.24368,1.20897 0.30619,0.98734 z m -24.11141,0.002 h -0.066 z m 12.84823,-0.13988 c 0.003,-0.32391 -0.16629,0.18642 0,0 z m 2.34363,-0.0192 -0.13647,0.0177 z m 2.3016,-0.0799 c -0.17138,-0.14687 0.009,0.25485 0,0 z m -2.22141,-0.13133 c 1.66231,-0.56321 -0.38151,-0.66853 0,0 z m 2.30064,-0.25967 -0.0224,0.17056 z m 1.69491,-0.10531 c -0.40322,-0.23125 0.0576,0.63202 0,0 z m -1.53491,-0.0424 c -0.2605,-0.15725 0.009,0.25878 0,0 z m 1.43509,-0.10555 -0.0534,0.042 z m 0.41466,0.0166 c 2.03523,0.10041 0.57846,-3.569 0.11765,-0.95089 -0.13517,-0.008 -0.77253,1.14352 -0.11765,0.95089 z m -0.16201,-0.0173 0.084,10e-4 z m -3.90131,-0.0805 c -0.0261,-0.24134 -0.18845,0.41844 0,0 z m 6.80752,-0.11839 c 2.26695,-1.55748 -1.48237,-2.18995 0,0 z m 4.13745,-0.16347 0.0148,0.0946 z m 0.2765,-0.59658 c -0.0542,-0.33444 -0.0424,0.2914 0,0 z m -12.08023,-0.13535 c 1.23226,-0.63741 2.28685,-3.8929 0.65695,-1.18275 -0.30746,0.28145 -0.79656,0.68321 -0.65695,1.18275 z m 5.39315,-0.49334 -0.0316,0.0173 z m -6.34295,-0.48981 c -0.19245,-0.31636 -0.0215,0.41305 0,0 z m 9.95566,0.006 c 2.52607,-0.75161 -0.88882,-4.50956 -0.2488,-0.86998 -0.0281,0.31479 0.15695,0.58123 0.2488,0.86998 z m 2.54922,-0.1447 -0.0475,5.9e-4 z m 0,-0.53193 -0.0673,-0.0198 z m -13.01151,-0.1566 c -0.24646,-0.34016 -0.0408,0.39367 0,0 z m 0.19947,-0.11939 c -0.12371,-0.58738 -0.35881,0.81113 0,0 z m 8.5294,-0.14803 c 2.27385,-2.08075 -1.40281,-2.9333 0,0 z m -8.31432,-0.18655 c -0.43077,-0.25026 0.12087,0.53893 0,0 z m 0.36767,-1.23028 c 0.81058,0.0908 -0.14788,-0.77801 0,0 z m 3.27263,-0.12273 c 0.0321,-0.26767 -0.13247,0.16299 0,0 z m -3.20373,-0.0327 -0.0823,-0.0231 z m 3.34151,-0.14569 c -0.35487,-0.033 0.21902,0.44023 0,0 z m -2.9091,-0.0743 c 0.67937,-0.22386 -0.46954,-0.20329 0,0 z m 3.08135,-0.12704 c -0.14984,-0.19037 -0.0515,0.24585 0,0 z m -2.88877,-0.0872 c 1.86319,-0.58204 1.054,-2.6055 0,0 z m 10.60527,-0.0344 -0.0558,-0.16252 z m -10.66977,-0.1156 -0.0629,0.0767 z m 8.83027,-0.1193 c 2.5019,-1.45268 -1.93471,-3.52454 0,0 z m 1.80506,-0.0756 -0.0475,6.1e-4 z m -8.49297,-0.0732 c 1.21917,-0.0587 -0.32475,-0.52028 0,0 z m 8.42408,-0.008 -0.13752,-0.13691 z m 0.0494,-0.18726 c 0.66302,-0.95761 -0.63471,-0.43082 0,0 z m -26.75885,-0.15389 -0.001,0.084 z m 18.5675,-0.11326 c 1.13544,-0.94949 0.2464,-0.99931 0,0 z m -5.18905,-0.13996 c 2.60097,0.49183 -0.82408,-1.46141 -0.17682,-0.16052 l 0.13818,0.12543 z m 13.14775,-0.0892 -0.006,0.0623 z m 0.0981,-0.35141 c 1.19654,-1.29962 -1.25889,-4.18092 -0.41431,-1.21027 l 0.13358,0.63182 z m -10.54525,-0.0543 c 0.593,-0.49161 -0.6749,0.012 0,0 z m -5.03444,-0.36649 c 0.17459,-0.33176 -0.29099,0.0527 0,0 z m 15.30934,-0.0888 -0.006,0.0623 z m -15.49959,-0.1744 c -0.0927,-0.29168 -0.15969,0.24496 0,0 z m 8.89014,-0.15896 c -0.41435,-0.25406 0.0141,0.58226 0,0 z m -10.96836,0.0453 c -0.15241,-2.03733 -3.87608,-1.25656 -0.77616,-0.49412 0.29534,0.1024 0.52032,0.32385 0.77616,0.49412 z m -7.36145,0.0325 -0.0632,0.002 z m 9.09934,-0.0804 c -0.12807,-0.68599 -0.37674,0.27867 0,0 z m 13.12078,-0.23462 c -0.16733,-0.30293 -0.13403,0.3722 0,0 z m -7.2524,-0.0446 c 4.80585,-2.43064 7.64243,-7.38821 12.29824,-10.03116 3.95066,-4.0823 2.78891,-10.17629 2.71762,-15.30878 -0.46043,-5.72342 -1.94391,-11.30081 -2.85843,-16.95338 -0.77672,-3.69731 -4.69412,-4.12103 -7.55387,-3.53106 -2.4968,-2.381064 -4.98001,-4.598354 -8.71433,-4.370084 -3.4503,-1.38167 -7.31345,-1.65592 -10.67022,0.14449 -9.53732,3.805354 -14.35075,15.356604 -11.80043,25.040044 -1.06653,-1.85839 1.50553,-4.91133 1.0212,-1.33026 -0.0255,4.11575 -0.10396,8.51545 2.20188,12.11801 2.44758,5.15197 7.87144,7.72666 12.23731,10.9811 3.28902,2.63651 7.11036,3.06001 11.12104,3.24028 z m -5.08239,-6.80709 c -2.37534,1.01694 -3.10114,-3.42853 -0.376,-1.20249 1.64271,0.61983 5.69098,-2.01137 5.75794,-0.26795 -1.72716,0.72288 -3.64766,0.76903 -5.38194,1.47044 z m -4.46045,-2.73372 c -4.3402,-0.4897 0.64436,-4.48542 2.91679,-3.70255 2.74639,-0.0836 7.95407,0.0365 9.07322,1.29046 -2.86251,2.56652 -7.14818,0.50775 -10.49035,2.06705 -0.49915,0.11814 -0.99781,0.23871 -1.49966,0.34504 z m 2.27243,-1.72404 c 2.06301,0.31299 7.83991,-1.20023 2.74508,-1.58952 -0.94113,-0.56657 -5.49807,1.3492 -2.74508,1.58952 z m 5.264,-5.7254 c -4.24634,0.48257 -6.97731,-4.88076 -5.22549,-8.4303 -0.65332,-1.54883 0.83741,-4.67231 0.59247,-1.40152 -0.44656,3.9024 6.24349,6.40816 4.63302,9.83182 z m -0.17152,-1.37192 c 2.126,-0.92585 -1.56013,-0.94443 0,0 z m -3.0386,-0.43664 c -0.28511,-0.93862 -0.56585,0.76371 0,0 z m -1.16501,-0.27322 c 0.0116,-0.87877 -0.68158,0.51868 0,0 z m 3.48233,-0.10626 c 1.50038,-0.57312 -0.91059,-0.12111 0,0 z m -1.09121,-0.25678 c 0.28906,-0.59453 -0.61848,0.35965 0,0 z m -1.03277,-0.37139 c 0.97124,0.31593 0.17525,-0.89555 0,0 z m 1.75612,-0.15703 c -0.28427,-1.03447 -1.26965,-0.28135 0,0 z m -2.37312,-0.78389 c 1.97247,-0.6974 -0.76644,-0.62653 0,0 z m -0.53184,-1.27241 c 0.50759,-0.55598 -0.56948,0.17928 0,0 z m 0.61812,-0.0466 -0.1022,0.0192 z m -1.09698,-0.0963 c 1.38104,-1.75114 -1.07916,-2.2298 0,0 z m 1.04237,-1.41216 c 0.76897,-1.11399 -0.55958,-0.0374 0,0 z m -1.03035,-1.51636 c 0.77551,-0.65445 -0.63279,-0.61329 0,0 z m -18.6414,5.44062 c -0.0873,-0.24175 0.19438,0.14649 0,0 z m 27.514,-6.1475 c -4.21746,-1.85383 6.99554,-1.51774 1.78123,-0.21254 -0.59214,0.0839 -1.18759,0.14069 -1.78123,0.21254 z m -18.39781,-0.56702 c -1.24174,1.58477 -4.39698,-2.03273 -1.43165,-0.8358 1.60442,-0.64979 4.66542,0.59455 1.43165,0.83592 z m 0.061,-1.7632 c -1.36646,-1.28306 -8.11356,-0.68093 -4.72984,-3.36321 2.89641,-1.90694 7.58912,-1.31981 9.15985,2.02729 -0.20736,-1.91575 -6.0475,-2.64217 -4.03444,-0.26751 2.4316,-2.38925 1.52381,2.24446 -0.39557,1.60343 z m -4.57373,-2.13361 c 1.14997,-0.19736 0.5831,-1.35327 0,0 z m 23.21841,1.97908 c -0.34578,-2.79897 -6.80881,0.29813 -3.01759,-3.11437 2.03115,-3.09928 10.23802,-1.33609 7.83729,2.40864 -1.88065,-0.64008 -2.97606,0.89375 -4.8197,0.70573 z m 1.42715,-0.94809 c 1.0857,-0.94796 -1.08637,0.28528 0,0 z m 0.70661,-0.28925 c -0.55305,-1.86782 -2.01823,0.85633 0,0 z m 1.73802,-1.02015 c -0.39389,-2.1938 -2.31893,-0.23415 0,0 z m -2.61059,-0.31029 c 2.40313,-0.62753 -2.01816,-1.04065 -0.45159,-0.1692 z m -0.34626,-1.70532 c -0.21489,-0.54052 -0.35959,0.55316 0,0 z m -24.19523,3.78575 c -0.49639,-1.11639 0.99739,0.10439 0,0 z m -1.05538,-5.98263 c 1.01873,-4.02858 7.2691,-4.95282 9.54491,-1.55137 -3.34917,-0.2017 -6.95639,-1.20719 -9.54491,1.55137 z m 3.10399,-2.71142 c -0.16628,-0.54807 -0.35669,0.90982 0,0 z m 17.37357,2.16712 c 0.92625,-3.6972 8.7179,-4.07368 8.38732,-0.99607 -2.76669,0.52853 -6.10162,-1.3565 -8.38732,0.99607 z m 8.37103,-1.40531 c -0.19729,-1.92674 -2.05693,0.32826 0,0 z m -3.05002,-0.60661 c -0.63703,-0.72663 -0.63937,0.98009 0,0 z m -23.16019,-9.30982 c -0.23586,-1.358044 1.50665,0.18551 0,0 z m 26.48577,46.48217 h -0.066 z m -2.28974,-0.55465 c 0.0829,-0.41136 -0.25826,0.27446 0,0 z m 6.20596,-0.89865 -0.006,0.0623 z m -22.11365,-0.022 c -0.10582,-0.53486 -0.49357,0.3482 0,0 z m 19.2541,-0.1361 c 1.03179,-0.50157 -0.081,-1.30338 0,0 z m -19.634,-0.15675 c -0.24997,-0.36729 -0.26668,0.36041 0,0 z m 16.28649,-0.25579 c 2.23237,0.21249 1.59773,-3.63788 0.16577,-0.86613 -0.14062,0.0881 -1.03106,1.1519 -0.16577,0.86613 z m 2.13301,-0.13334 c 0.38496,-0.14786 -0.30891,-0.12296 0,0 z m -19.44345,-0.63688 c 0.0744,-0.6687 -0.60663,0.17258 0,0 z m 17.44642,-0.34421 c -0.16642,-0.11967 0.0327,0.20236 0,0 z m -17.94257,-0.11607 c -0.58247,-1.40084 -2.89882,-0.99715 0,0 z m -1.26074,-0.1533 c -1.13529,-1.50267 -2.4083,-0.42422 0,0 z m -2.08056,-1.44078 -0.0191,0.0677 z m -0.48415,-0.0753 c 0.42053,-0.76366 -0.86042,0.12076 0,0 z m 0.35999,-0.0719 h -0.066 z m 29.92343,-3.71183 c 0.93339,-0.4626 -0.40684,-0.78693 0,0 z M 142.744,53.864907 c -0.21681,-1.36933 -0.85623,-0.34091 0,0 z m 1.08971,-0.16322 c 0.19707,-0.52135 -0.47403,0.0632 0,0 z m -0.56542,-0.94188 c -0.24077,0.27341 0.48416,0.0794 0,0 z m -0.12492,-0.26544 c -0.30537,-0.0521 0.34797,0.33078 0,0 z m -0.15005,-0.1785 -0.0192,0.0677 z m -0.15862,-0.29765 c 0.2138,-0.64346 -0.62328,-0.0846 0,0 z m -4.13939,-8.23761 c 0.58902,-1.3796 -1.54496,-4.00243 -1.11585,-1.24615 -0.48405,0.74329 0.29704,1.96802 1.11585,1.24615 z m 43.87915,-0.31013 c 1.07758,-3.23104 -2.86705,-1.49409 0,0 z m -46.68792,-0.4958 c -0.17086,-1.86854 -0.46221,0.54467 0,0 z m 0.77467,-0.47642 c 1.2756,-3.37062 -2.20595,-1.13354 0,0 z m -1.09518,0.0767 c -0.0862,-0.21954 -0.0914,0.24874 0,0 z m -0.0213,-0.41481 c -0.87879,-2.92836 1.28183,-7.13352 -1.62547,-9.18015 -1.95506,2.97784 1.64645,6.10975 1.62547,9.18015 z m 2.02287,-0.32175 c 0.84755,-0.75104 -0.7812,-0.38344 0,0 z m 1.41635,-1.49169 c -0.24469,-0.0948 0.13556,0.24729 0,0 z m 43.22987,-0.31233 c 2.26017,-2.5697 -2.71201,-6.97249 1.27615,-8.62305 -0.22928,-4.46128 -5.3168,0.57494 -2.81643,2.75862 0.35611,1.98609 0.50979,4.0795 1.54028,5.86443 z m -45.5454,-2.02188 c -6e-4,-0.21774 -0.13422,0.1482 0,0 z m -0.003,-0.18001 c -0.0587,-0.2926 -0.0868,0.22739 0,0 z m -0.65251,-1.23442 c 0.0402,-0.70881 -0.22316,0.31887 0,0 z m 1.43122,-0.50812 c 0.77512,-0.9532 -0.65697,-0.91543 0,0 z m 45.59613,-0.0125 c 0.74858,-0.80285 -0.51456,-0.80994 0,0 z m -46.40861,-0.75596 c 0.49338,-0.98342 -0.80521,-0.4069 0,0 z m -0.36635,-1.51371 c 0.25361,-1.07004 -0.34733,0.31888 0,0 z m 1.0788,-2.30251 c 0.59583,-7.11406 4.9122,-13.27445 10.14087,-17.866184 2.82181,-2.95963 5.56458,-5.9981196 8.51831,-8.8289626 -0.5371,-4.17631197 -5.01401,0.936976 -5.62322,2.876963 -1.58055,2.18796 -5.82684,7.5878496 -6.22488,7.3786896 2.03821,-3.37904 4.88097,-6.1579396 7.23678,-9.3021406 2.99751,-1.82883 -0.14931,-4.87299497 -2.24208,-2.156399 -1.32814,0.728594 -3.21901,4.48345 -2.62269,4.59469 0.11373,-1.44332 3.94266,-5.30351 1.8826,-2.163827 -4.15994,6.7077966 -7.5135,13.8819806 -10.93899,20.9774906 -0.53711,1.4204 -0.78543,3.06315 -0.1267,4.48968 z m 6.4553,-15.226554 c -0.0927,-0.32619 0.28188,0.1003 0,0 z m 36.17737,14.239214 c 1.76278,-1.43034 -2.02844,-5.20134 -0.61975,-1.49599 0.11525,0.52811 0.27299,1.06826 0.61975,1.49599 z m -42.99771,-3.30816 c 0.78072,-1.10118 2.16,-6.06211 0.40225,-2.67202 -0.27947,0.86005 -0.43454,1.76613 -0.40225,2.67202 z m -2.24019,-1.18467 c 0.0707,-1.06991 -0.41657,0.55004 0,0 z m -0.0374,-0.44195 c 0.28586,-0.6754 -0.21702,0.11838 0,0 z m 1.90877,-0.0704 c 2.06004,-5.56112 4.48451,-11.009714 5.93774,-16.7760336 -4.07504,1.7543896 -3.35808,6.8898996 -5.4029,10.1357036 -0.93986,1.90337 -3.02009,5.02818 -0.53484,6.64031 z m 1.60852,-7.18968 c 0.0736,-0.21875 0.0736,0.21875 0,0 z m 41.42674,7.06542 c 0.17682,-3.2443 0.43305,-10.023494 -4.38062,-9.113914 -2.73588,0.0378 -3.19403,-3.8328 -4.84589,-4.2734 0.55986,-1.08699 2.5848,-4.0301996 0.29429,-1.60612 -1.59346,2.30228 -4.31524,-0.4805096 -3.08365,-0.4895296 -1.27804,1.2825196 -4.06157,1.7422496 -1.86982,-0.57721 -1.21908,-0.56198 -3.38374,0.14071 -1.03358,-1.43439 0.78798,-1.23186 5.27564,-3.809174 2.33202,-1.23523 -2.27526,2.51157 0.55458,0.41664 1.71914,-0.0301 -0.8093,0.89238 -4.75065,5.0156496 -1.29182,2.88419 0.69754,-1.17012 5.73201,-3.925949 2.83117,-1.34882 -1.17004,0.58686 -2.86681,3.7852096 -0.49549,1.8707996 0.9836,-1.6551196 5.52916,-2.2891196 2.47104,0.16864 -1.74626,1.48447 0.19872,1.58017 1.28314,0.55821 -2.78979,3.96536 5.18329,2.51253 4.03242,-0.8601396 -2.15577,-2.70411 -4.97903,-5.898473 -8.3606,-7.403664 -4.706,-0.05515 -9.7453,1.730228 -12.80547,5.456024 -3.03245,2.01789 1.24571,2.6875096 2.39442,0.75755 0.83563,-1.05335 3.29335,-4.245379 3.61047,-3.248263 -2.38865,1.381593 -6.48259,6.8242326 -1.48919,7.2637926 3.95762,0.17886 7.14754,2.36389 10.80743,3.40383 4.06349,-0.0236 6.1059,3.202584 6.78382,6.756434 0.32501,0.85073 0.68362,1.68941 1.09677,2.50134 z M 160.28292,10.945353 c 0.54164,-3.4251096 6.46142,-6.5396526 7.40832,-6.8998366 -2.55667,1.916809 -5.45557,4.156377 -6.78061,6.7779066 z m -0.55039,-1.1815296 c -0.17549,-0.40206 0.37277,0.0984 0,0 z m 2.84123,-0.0314 c -0.14395,-0.37131 0.30821,0.048 0,0 z m 5.1228,-5.399745 c -0.27178,-0.217765 0.26166,-0.08777 0,0 z m -3.87671,-0.594872 c 0.0379,-0.397542 0.30917,0.284359 0,0 z M 134.70427,25.186997 c 0.01,-1.27811 -0.69711,0.69513 0,0 z m 4.47884,-3.70787 c 1.4456,-3.7675 2.83481,-7.564334 3.89307,-11.461584 -1.6654,3.68204 -2.97929,7.524524 -3.89307,11.461584 z m -4.07749,-0.34118 c 0.91232,-1.4019 3.65893,-5.678144 0.39478,-5.607284 0.31702,1.883804 -0.37119,3.731624 -0.39478,5.607284 z m 34.89248,-3.10874 c 4.95722,-0.10321 -2.55342,-3.530314 0,0 z m -28.88587,-0.156 c 2.11531,-4.230194 4.08597,-8.5316236 6.24848,-12.7383806 -3.77935,1.165245 -3.9397,5.6425466 -4.91336,8.8219266 -0.4737,1.29558 -1.02478,2.56488 -1.33512,3.916454 z m -5.90794,-0.15298 c -0.0912,-0.15487 -0.0495,0.20456 0,0 z m 40.68326,-0.18086 c -0.15034,-0.998344 -0.58661,0.52256 0,0 z m -0.132,-1.770594 c 2.74541,-0.84052 -2.97412,-3.18169 -0.31955,-1.24409 -0.76639,0.50921 -0.9935,1.85635 0.31955,1.24409 z m -6.87769,-0.57983 c -0.39572,-1.58596 -1.21881,1.0835 0,0 z m 5.14732,-0.32952 c 0.55876,-1.67489 -1.42158,0.9531 0,0 z m 2.69263,-0.26595 c 1.47202,-1.70442 -1.22179,-2.27092 0,0 z m -28.96512,-0.0769 c 1.57226,-1.57705 7.73556,-1.93832 7.11234,-3.32807 -2.53043,0.63491 -5.42152,1.12094 -7.11234,3.32807 z m 3.98942,-1.91436 c -0.57849,-0.75003 0.67677,0.14502 0,0 z m 21.1318,1.7249 c 1.81999,-0.054 -0.97793,-0.56767 0,0 z m -21.62879,-2.62178 c 2.99474,-1.9094396 6.22674,-4.0966596 7.47479,-7.5941026 -3.75135,0.591176 -6.67471,4.843063 -7.90633,7.6069826 z m -6.29668,-0.4088 c 0.97391,-0.75614 -0.10906,-1.6060296 0,0 z m 21.74194,-1.05163 -0.0475,-8.6e-4 z M 143.16463,9.8230234 c 1.61492,-1.81235 -1.08771,-2.2788 0,0 z m 3.45668,-4.962768 -0.0854,0.03675 z m 17.88159,-1.542146 -0.10299,0.03832 z m 11.04078,74.6528876 c 0.0772,-0.19907 0.0944,0.17833 0,0 z m -9.68179,-0.20335 c -0.37697,0.24804 -0.11958,-0.25934 0,0 z m 11.32482,-5.4979 0.0165,0.0454 z m -28.10756,-69.1451506 0.10154,0.0025 z"
       id="path4784"
       inkscape:connector-curvature="0" />
    <g
       transform="matrix(2.8349129,0,0,2.8349129,183.8934,-755.62646)"
       id="layer1-4"
       inkscape:label="Layer 1">
      <g
         transform="matrix(1.1158221,0,0,1.1158221,-1.7588169,-32.499469)"
         id="g8636">
        <path
           style="fill:#000000;stroke-width:0.01846515"
           d="m 14.670507,293.24384 c -1.395493,-0.43497 -1.752517,-2.02742 -1.73745,-3.05909 -1.479508,-0.69348 -2.9531095,-0.91088 -4.3309091,-1.84906 -0.5622367,-1.38971 -1.9074833,-2.09364 -3.2157823,-2.66756 -1.6823861,-0.80831 -0.3736249,-2.70761 0.4853767,-3.61989 1.1480053,-1.12821 1.9345213,-2.51551 2.3704566,-4.05869 0.1457234,-0.87656 0.8384038,-3.01133 0.2567666,-3.20739 0.093111,0.80625 -1.1654176,2.15217 -0.4972184,0.60527 0.5841782,-1.28434 0.2188984,-3.12496 1.6085949,-3.94242 1.398173,-1.69271 3.234359,-3.4444 5.559842,-3.49267 1.690865,0.82199 3.548792,0.69154 5.386114,0.76946 1.594828,0.29046 2.251927,1.99089 3.459966,2.87844 0.938198,1.67305 0.655598,3.74068 0.866396,5.59212 -0.135709,1.95616 0.268909,4.1665 -0.09596,5.91416 -0.116529,0.79178 -0.538801,3.10485 0.1354,2.79994 -0.0065,-0.60874 -0.414247,-2.86739 0.155524,-2.44101 -0.306895,0.98447 0.601258,2.91007 0.424561,0.95615 -0.143278,-0.95177 0.117888,-3.40494 0.207455,-1.13137 -0.100541,1.65178 0.711533,3.79496 -1.173892,4.66219 -1.352944,0.80145 -2.435148,1.77495 -3.12367,3.11855 -1.173665,-0.17566 -0.496868,2.24232 -1.756683,1.49329 1.303995,-0.35086 0.405872,-4.15607 -0.487632,-2.8423 0.181198,0.76146 -0.130599,2.59394 -0.323592,0.8323 0.559578,-1.49746 -0.06921,-3.22207 -1.730136,-1.88384 -1.169675,0.6433 -2.288998,2.9259 -0.74637,3.69405 0.774053,-0.0754 2.685494,0.65249 2.635018,0.59687 -1.438482,0.17934 -2.89952,0.0407 -4.332176,0.2825 z m -0.664074,-1.21027 c -0.10141,-0.22977 -0.05818,0.15601 0,0 z m 6.698224,-1.21583 c 1.19179,-0.44912 -0.738083,-0.7314 0,0 z m -6.745058,-0.23534 c 0.276984,-0.64759 -0.567376,0.0242 0,0 z m 0.789385,-0.28095 c 0.797488,-0.3092 -0.330773,-0.56146 0,0 z m 5.908848,-0.23081 c 0.921682,-0.0509 -0.201535,-0.39499 0,0 z m -7.402633,-0.12104 c 0.3649,-1.35857 -2.599928,-0.2905 -0.358876,-0.15784 z m 7.551795,-0.48861 c 1.252508,0.0937 0.276181,-2.19457 0.04996,-0.69452 1.439338,-0.53813 -1.181303,0.63328 -0.04996,0.69452 z m -6.897001,-0.57237 c 0.380265,-0.92329 -0.440661,-0.58987 0,0 z m 6.233324,-0.0456 c 0.55014,-0.81916 -0.861589,-1.76854 -0.23754,-0.29532 l 0.08357,0.17309 z m 2.261082,0.008 c 1.498807,-0.45616 -0.840567,-0.553 0,0 z m -13.0818777,-0.0319 0.010219,0.0302 z m 0.7255717,-0.0432 c -0.1188314,-0.37601 -0.3968013,0.18102 0,0 z m 1.396671,-0.0673 c 1.144851,-1.33835 -1.384287,0.12047 0,0 z m 0.743125,-0.14521 c 0.695769,-0.37007 -0.909284,-0.0121 0,0 z m 9.706196,-0.1173 c 1.287539,-0.0763 -0.10476,-2.2088 0,0 z m -11.274696,-0.10392 c 0.853982,-0.92228 -1.4405288,0.26075 -0.05983,0.0466 z m 12.699534,-0.0204 c 1.211921,-0.80603 -1.008648,-0.75765 0,0 z M 9.2234491,288.21726 c -0.00209,-0.74117 -0.6669288,0.0193 0,0 z m 11.6314969,-0.10201 c 1.521969,-0.64591 -0.801992,-1.34631 0,0 z M 9.8239702,287.86867 c -0.074087,-0.27775 -0.1504167,0.17324 0,0 z m 4.0894658,-0.14494 c 0.393631,-0.71395 -0.861947,0.16041 0,0 z m 10.308002,0.002 c 1.003495,-0.35448 -0.506866,-0.46404 0,0 z m -11.753267,-0.15006 c -0.110145,-0.62161 -0.48484,0.45058 0,0 z m 4.936199,0.003 c 1.720138,-0.37448 2.176857,-2.42764 3.239207,-3.65577 0.791705,-1.95317 1.255974,-4.07144 0.812665,-6.17369 0.175772,-1.93841 -1.696956,-2.69579 -2.954184,-3.68594 -1.542296,-0.45378 -3.104387,1.11124 -4.756159,0.92664 -1.899259,-0.37034 -2.798087,1.16208 -2.892054,2.80519 -0.849439,1.45927 -0.117271,2.97679 0.03003,4.48711 -0.08803,1.92658 2.445765,1.77094 2.353693,3.81798 0.593112,1.77654 2.702002,1.49415 4.166798,1.47848 z m -1.965807,-1.82616 c -0.03933,-1.26479 2.579549,0.0541 0.623528,0.0239 -0.208167,0.002 -0.415741,-0.0148 -0.623528,-0.0239 z m -1.885372,-0.32555 c -0.0838,-0.62874 0.645064,0.17507 0,0 z m 0.574922,-0.43974 c 0.169031,-1.50822 2.878234,-1.49441 3.586053,-0.64742 -0.650275,1.08791 -2.534123,0.11747 -3.586053,0.64742 z m 2.682271,-0.49922 c 0.306466,-1.08493 -3.36073,0.2212 -0.932311,0.0319 0.310942,0.008 0.623079,0.005 0.932311,-0.0319 z m 1.607492,0.37205 c -0.22128,-0.29915 0.295412,0.089 0,0 z m -5.26305,-1.14444 c -0.08065,-1.0656 0.892946,-0.66907 0,0 z m 5.769767,-0.0939 c -0.754447,-1.35129 0.320292,-1.01914 0,0 z m -4.822141,-0.80323 c -0.447183,-0.48552 0.245876,-0.72982 0,0 z m 0.818196,-0.33928 c -0.670214,-0.96313 1.930792,-1.18853 0.772549,-2.3051 -0.314011,-0.89096 0.735513,-1.80091 0.378326,-0.35367 0.06193,1.14911 1.164192,2.75201 -0.753119,2.56202 l -0.199634,0.0448 z m -1.981249,-2.22673 c -1.283018,-0.0596 -0.226773,-1.14369 0.575443,-0.66199 1.859424,-0.0466 0.14787,0.86597 -0.575443,0.66199 z m 4.886565,-0.32827 c -0.445289,-0.50132 0.598443,-1.82137 -0.779461,-1.16876 -0.338894,-1.33446 2.399934,-1.78041 3.114524,-0.44252 1.670739,0.50631 -1.863744,0.32941 -1.140626,1.05362 1.961551,-0.0975 -0.933827,0.79274 -1.194437,0.55766 z m 1.237187,-1.43816 c 0.623239,-0.93585 -1.085339,-0.12904 0,0 z m -6.082205,0.89589 c -0.706281,-0.0964 -0.414658,-1.37768 -1.365141,-0.48008 -0.620152,-1.3916 2.129046,-1.96001 2.869933,-0.75064 0.808232,1.05638 -0.884424,1.0961 -1.504792,1.23072 z m 1.236343,-0.48363 c -0.03345,-0.46161 -0.411272,0.23435 0,0 z m -0.656209,-0.46269 c 0.386932,-0.58457 -0.676762,-0.11897 0,0 z m -2.180011,-0.94122 c 0.460639,-1.20599 3.030885,-1.68223 3.182744,-0.44982 -1.186395,-0.23238 -2.048588,0.13948 -3.182744,0.44982 z m 8.74945,-0.26301 c -0.615172,-1.15071 -4.41881,0.35394 -2.121957,-1.0088 0.58817,-0.35225 2.727857,0.23884 2.121957,1.0088 z M 8.8478584,287.59433 c -0.017267,-0.44909 -0.5073919,0.0279 0,0 z m 15.1507406,-0.26577 c 0.2909,-0.28578 -0.396545,0.0254 0,0 z m -1.448914,-0.0567 c 1.046039,0.31234 -0.03858,-0.66402 0,0 z m 0.91485,-0.0356 c -0.09019,-0.11635 -0.08424,0.10659 0,0 z m -4.089948,-0.0849 c -0.02484,-0.49023 -0.357649,0.35619 0,0 z m -7.461051,-0.14074 c -0.154345,-0.98651 -1.066293,0.35741 0,0 z m 1.0407,-0.074 c -0.285185,-0.87487 -1.063794,-0.0307 0,0 z m 11.627441,-0.0512 c -0.06239,-0.12711 -0.06239,0.12711 0,0 z m 0.980647,-0.0496 c 0.453049,-0.44152 -0.454388,0.009 0,0 z m -15.9466516,0.002 C 10.46467,286.2154 10.47871,284.95558 9.587688,286.295 c -0.9692751,0.54953 -0.8617312,-2.39913 -1.0982842,-0.30356 -0.010992,0.58494 0.6779962,0.75311 1.1262686,0.84638 z m 0.6329996,-0.0282 c 0.928876,0.17042 1.277593,-2.01613 0.251437,-0.75237 -0.159503,0.13987 -0.6614536,0.57039 -0.251437,0.75237 z m 13.958314,-0.1696 c 0.660102,-0.69078 -0.501605,-0.15181 0,0 z m -13.066945,-0.0669 c -0.09678,-0.18649 -0.05708,0.1503 0,0 z m 12.563518,-0.0604 c 1.583025,-0.98691 -1.271605,0.10273 0,0 z M 12.045664,286.3186 c 0.0031,-1.42262 -1.149105,-0.19657 0,0 z m 10.793569,-0.0327 c 0.722493,-0.24921 1.666842,-1.94092 0.374168,-0.91167 -0.332925,0.21633 -1.705915,1.1824 -0.374168,0.91167 z m -9.931064,-0.13026 c 0.772592,-1.06754 -2.222461,-2.33365 -0.776702,-0.71631 0.20254,0.28851 0.432137,0.59129 0.776702,0.71631 z m 8.832493,0.0218 c 0.424347,-0.72101 2.744105,-1.71077 2.199876,-1.73647 -0.201751,0.11105 0.961154,-1.4844 -0.198151,-0.44914 -0.556493,0.54814 -1.637767,1.97625 -2.141454,1.67043 0.577827,-0.94236 3.004552,-2.11936 2.417425,-2.80149 -0.967662,0.94468 -2.882506,1.54767 -2.973964,3.00623 0.0879,0.28633 0.428187,0.40442 0.696268,0.31044 z m -2.286196,-0.12285 c 2.077441,-1.54036 -1.035022,-0.009 0,0 z m -11.4927436,0.0813 c 0.2588562,-1.57815 0.8793856,-4.09469 -0.333185,-5.14335 -0.8871707,1.12198 -2.3045246,2.64734 -1.1956447,4.12936 0.3259121,0.58284 0.9482501,0.78609 1.5288297,1.01399 z m 15.5787356,-0.0642 c 1.465409,-0.60395 0.135814,-0.95499 0,0 z M 9.4311671,285.64066 c 1.1314549,-0.66285 -0.7623897,-0.39186 -0.023,0.0117 z m 0.1106447,0.0333 -0.042908,-0.009 z m -3.7422334,-0.23722 c -0.8794184,-0.69283 0.5972184,-3.9066 -0.72728,-1.84815 -0.3933471,0.68545 -0.2312662,1.79755 0.72728,1.84815 z m 4.3450616,-0.0632 c 1.147848,-0.22524 0.284238,-1.23445 0,0 z m 0.154243,-0.0135 -0.0429,-0.009 z m -0.9661868,-0.54482 c 0.6509033,-0.48225 0.8465988,-1.33854 0.2526424,-1.53645 0.4929684,-0.89135 -0.4754374,-0.85075 -0.6248203,-0.77248 0.1124621,0.7344 -0.3339009,1.79075 0.3721779,2.30893 z m 1.0649628,0.0488 c 0.02218,-0.12734 -0.06082,0.0875 0,0 z m -0.5040924,-0.14878 c 1.2091264,-0.29631 -0.6339299,-0.31025 0,0 z m 11.4713484,-0.12417 c 0.817554,-1.12546 2.905041,-1.73432 3.04398,-2.83768 0.682643,-0.94337 -0.230555,-1.71216 -0.749875,-0.53247 -0.914583,0.97454 -2.165035,1.94614 -2.294105,3.37015 z m -11.019866,-0.48615 c 0.452505,-0.49522 -0.4672894,0.17605 0,0 z M 24.4687,283.86539 c -0.05313,-0.0608 0.0016,0.11336 0,0 z m -0.632506,-0.0406 -0.02648,0.0397 z m -2.727211,-0.0658 c 0.506854,-0.7775 -0.162657,-0.6662 0,0 z M 9.9874581,283.25643 c 0.7867529,-1.13383 -0.6917717,0.15762 0,0 z m -4.5085451,-0.35027 -0.029912,0.048 z m 16.54653,-0.34462 c 0.700515,-0.81448 3.015227,-2.4708 2.186213,-3.10769 -0.263363,0.56109 -1.917548,2.43834 -1.065875,0.93176 1.466606,-1.10149 1.739471,-2.81362 1.452865,-4.52349 -0.05085,-1.10632 -0.135326,-3.88876 -1.292003,-1.88364 -0.406442,0.56801 -1.85077,1.77182 -0.708981,0.5578 1.346441,-0.64693 0.852001,-2.9563 -0.394255,-1.26255 -0.404446,0.70475 -2.25652,1.9818 -0.924043,0.62651 1.554826,-0.73302 2.220933,-2.41579 0.803305,-3.68661 -1.244303,-1.59093 -2.546314,0.95318 -3.764229,1.41082 -1.697135,1.38134 0.923418,0.84395 1.396901,-0.13003 0.69212,-0.77198 1.267291,-0.61167 0.226323,0.0688 -0.968875,0.21845 -2.150557,2.50051 -0.413008,1.36123 0.638668,-0.58468 1.835111,-1.93532 2.375273,-1.79588 -0.809519,0.96895 -3.889414,2.06037 -2.137986,3.46522 1.14173,0.50493 2.403737,2.87964 3.165396,0.70466 1.094819,-0.57406 -1.501976,1.57003 -0.854523,2.4705 0.798262,1.51162 0.480027,3.42328 -0.280528,4.8569 0.07493,0.0515 0.193956,0.0221 0.229155,-0.0643 z m 1.605279,-1.97078 c 0.04001,-0.11868 0.0785,0.0903 0,0 z m 0.147721,-0.0625 c -0.04482,-0.16842 0.12911,0.005 0,0 z m -0.897805,-1.37838 c -0.170371,-0.81711 2.042491,-3.06213 1.008234,-1.30472 -0.430788,0.35202 -0.730003,0.97159 -1.008234,1.30472 z m 0.457285,-0.22094 c 0.321804,-0.42363 0.599814,-0.088 0,0 z m -0.871518,-1.08489 c 0.269222,-0.64156 1.93983,-3.14309 1.13105,-1.35537 -0.842145,0.76219 0.37347,0.83579 -0.842981,1.23641 z m 1.137967,-3.13682 c -0.120922,-0.24394 0.254133,0.12061 0,0 z m -3.708227,-0.56427 c 0.387286,-0.6768 2.376211,-2.36199 2.104199,-1.85858 -0.653334,0.67021 -1.33121,1.3261 -2.104199,1.85858 z m 1.563642,-1.40007 -0.05666,0.0453 z m -0.389351,-2.28831 c 0.173795,-0.57091 0.751502,-0.31521 0,0 z m -10.387478,12.08781 c 0.12058,-0.96815 -0.7984039,-1.92275 -0.222248,-0.39222 l 0.09197,0.20624 z m -0.9316295,-0.4496 c 0.4407595,-0.65242 -0.5254181,0.19618 0,0 z m -0.7733575,-0.0383 c 1.088963,-0.6827 -0.7616506,-0.71992 0,0 z m 0.018212,-0.78247 c 1.227099,-0.3287 -0.2516237,-1.00691 0,0 z m 12.923956,-0.0831 c 0.836197,-0.70989 -0.220192,-4.13312 -0.03994,-1.74626 -0.0041,0.58204 -0.03266,1.16684 0.03994,1.74626 z M 8.8399414,280.82883 c 1.2356596,-0.44385 -0.4754519,-1.45469 0,0 z m -0.9400861,-0.47491 c 0.6180163,-0.4636 -0.00402,-1.11608 0,0 z m 1.1727123,-0.53144 c 0.8966899,-0.60192 -0.5931043,-0.4293 0,0 z m -0.3622222,-0.33181 c 0.7979661,-0.6867 -0.4335197,-1.21163 0,0 z m 1.3938806,-0.59825 c 0.621787,-0.98706 0.940194,-2.86677 0.830917,-3.64025 -0.66181,0.95636 -1.0877024,2.52882 -0.830917,3.64025 z m -0.7511744,-0.51127 c 0.3504314,-0.56626 0.4815311,-2.31223 -0.1422796,-0.81728 -0.075201,0.26956 -0.086194,0.60945 0.1422796,0.81728 z m -0.1786068,-1.34687 c 1.2307552,-1.56918 2.0742492,-3.48178 3.8301162,-4.5767 1.097495,-1.25546 3.179914,-2.09959 3.811919,-3.44304 -1.894328,0.33439 -2.937235,2.32698 -4.422599,3.42286 -0.968457,1.33001 -2.9984338,1.92244 -3.2784535,3.68167 -0.022417,0.3033 -0.084599,0.62931 0.059017,0.91521 z m 0.2958618,-0.11545 -0.034365,0.0326 z m 0.1760779,-2.45082 c 1.2221005,-1.2328 1.8350885,-2.95286 3.2907885,-3.9674 0.481414,-0.38538 1.176374,-1.67175 0.209243,-0.66043 -1.695341,0.57812 -3.063964,2.14277 -3.5553111,3.85063 -0.031053,0.25949 -0.010599,0.52449 0.05528,0.7772 z m 1.2840735,-1.8738 c 0.08021,-0.11666 -0.01683,0.12736 0,0 z m -0.262472,1.21914 c 1.81327,-1.66418 3.535026,-3.43143 5.447324,-4.98515 -1.723312,-0.4808 -2.482354,1.67698 -3.505134,2.64851 -0.635201,0.78127 -1.549355,1.38668 -1.94219,2.33664 z m 0.796556,-0.0151 -0.02648,0.0397 z m -0.750151,-0.30451 c -0.05994,-0.0781 -0.05562,0.10458 0,0 z m 2.12345,-0.45037 c 2.088527,-0.4862 3.297541,-2.52864 5.218709,-3.3224 -0.773453,0.92966 -3.045934,1.80911 -2.905329,2.66713 1.468752,-0.36278 2.325986,-2.05794 3.726713,-2.39402 -0.480236,0.78503 -3.286915,1.67103 -2.235995,2.43301 1.431485,-0.3233 2.303328,-1.77796 3.609023,-2.40992 1.189044,-1.6665 -2.3072,-0.91327 -3.140409,-0.63652 -1.38323,0.84097 -2.53951,2.04145 -3.837397,3.02548 -0.03062,0.15087 -0.744112,0.49174 -0.435315,0.63724 z m 6.784578,-0.12515 c 0.02708,-0.14275 -0.07689,0.1039 0,0 z m 4.272644,0.005 c 0.860778,-0.81453 -1.545391,-2.39369 -0.34807,-0.73915 0.07792,0.25766 0.101545,0.57093 0.34807,0.73915 z m -12.562132,-0.41183 -0.06482,-0.0366 z m -1.234684,-0.40916 c 0.585913,-0.45314 2.391121,-2.88576 0.71592,-1.53152 -0.336934,0.39139 -1.1272874,0.97563 -0.71592,1.53152 z m 5.121467,-0.21018 -0.04503,0.01 z m 4.295634,-0.051 -0.03438,0.0326 z m 3.302907,-1.39588 -0.06946,-0.0623 z m -4.503142,-0.1367 -0.03438,0.0326 z m -7.478386,-0.20328 -0.02648,0.0397 z m 2.161301,-0.54539 c 1.448546,-0.84281 -0.902064,-0.53556 0,0 z m -0.277855,-0.3594 -0.03438,0.0326 z"
           id="path8627"
           inkscape:connector-curvature="0"
           sodipodi:nodetypes="ccccccccccccccccccccccccccccccccccccccccccccccccccccccccccccccccccccccccccccccccccccccccccccccccccccccccccccccccccccccccccccccccccccccccccccccccccccccccccccccccccccccccccccccccccccccccccccccccccccccccccccccccccccccccccccccccccccccccccccccccccccccccccccccccccccccccccccccccccccccccccccccccccccccccccccccccccccccccccccccccccccccccccccccccccccccccccccccccccccccccccccccc" />
      </g>
    </g>
  </g>
</svg>
